<svg xmlns="http://www.w3.org/2000/svg" viewBox="0 0 310 56" width="310" height="56" role="img" aria-label="PATRICKSCHROEPPEL.COM ↗"><title>PATRICKSCHROEPPEL.COM ↗</title><style>@media (prefers-reduced-motion: reduce){*{animation:none!important}}</style><rect width="310" height="56" fill="#0B0B0B"/><rect x="0.5" y="0.5" width="309" height="55" fill="#0B0B0B" stroke="#0B0B0B"/><path fill="#ECEAE4"  d="M33.2 33V23.2H36.8Q38.2 23.2 39 24Q39.7 24.8 39.7 26.2Q39.7 27.5 39 28.3Q38.2 29.1 36.8 29.1H34.7V33ZM34.7 27.8H36.6Q38 27.8 38 26.5V25.9Q38 24.5 36.6 24.5H34.7ZM49.3 33 48.5 30.4H45.4L44.7 33H43.1L45.9 23.2H48.1L50.9 33ZM47 24.8H46.9L45.7 29.1H48.2ZM58.6 24.5V33H57V24.5H53.9V23.2H61.6V24.5ZM67.1 33H65.6V23.2H69.2Q70.6 23.2 71.4 24Q72.1 24.8 72.1 26.2Q72.1 27.3 71.6 28Q71 28.7 70 28.9L72.2 33H70.5L68.4 29.1H67.1ZM69 27.8Q70.5 27.8 70.5 26.5V25.9Q70.5 24.5 69 24.5H67.1V27.8ZM76.3 33V31.8H78.6V24.4H76.3V23.2H82.5V24.4H80.2V31.8H82.5V33ZM90.5 33.2Q88.6 33.2 87.7 31.9Q86.8 30.5 86.8 28.1Q86.8 25.7 87.7 24.4Q88.6 23.1 90.5 23.1Q91.2 23.1 91.7 23.2Q92.2 23.4 92.6 23.8Q93 24.1 93.3 24.5Q93.5 25 93.7 25.5L92.3 26Q92.2 25.6 92 25.3Q91.9 25 91.7 24.8Q91.5 24.6 91.2 24.5Q90.9 24.4 90.5 24.4Q89.4 24.4 89 25.2Q88.5 25.9 88.5 27.3V28.9Q88.5 30.3 89 31.1Q89.4 31.9 90.5 31.9Q90.9 31.9 91.2 31.7Q91.5 31.6 91.7 31.4Q91.9 31.2 92 30.9Q92.2 30.6 92.3 30.3L93.7 30.7Q93.5 31.2 93.3 31.7Q93 32.1 92.6 32.5Q92.2 32.8 91.7 33Q91.2 33.2 90.5 33.2ZM100.6 28.5 99.5 30V33H97.9V23.2H99.5V27.9H99.5L100.7 26.3L103.1 23.2H104.9L101.7 27.3L105 33H103.3ZM111.7 33.2Q110.4 33.2 109.6 32.7Q108.7 32.3 108.1 31.5L109.2 30.6Q109.7 31.2 110.3 31.6Q111 31.9 111.8 31.9Q112.7 31.9 113.2 31.4Q113.7 31 113.7 30.2Q113.7 29.6 113.3 29.3Q113 28.9 112.1 28.8L111 28.6Q110.3 28.5 109.8 28.2Q109.4 28 109.1 27.6Q108.8 27.3 108.6 26.8Q108.5 26.4 108.5 25.9Q108.5 24.5 109.4 23.8Q110.3 23.1 111.9 23.1Q113 23.1 113.9 23.4Q114.7 23.8 115.2 24.5L114.2 25.5Q113.8 25 113.2 24.7Q112.7 24.4 111.9 24.4Q111 24.4 110.5 24.7Q110.1 25.1 110.1 25.8Q110.1 26.4 110.4 26.8Q110.8 27.1 111.7 27.3L112.8 27.4Q114.1 27.7 114.7 28.4Q115.3 29.1 115.3 30.2Q115.3 30.8 115 31.4Q114.8 31.9 114.4 32.3Q113.9 32.7 113.2 33Q112.6 33.2 111.7 33.2ZM122.9 33.2Q121 33.2 120.1 31.9Q119.2 30.5 119.2 28.1Q119.2 25.7 120.1 24.4Q121 23.1 122.9 23.1Q123.6 23.1 124.1 23.2Q124.6 23.4 125 23.8Q125.4 24.1 125.7 24.5Q125.9 25 126.1 25.5L124.7 26Q124.6 25.6 124.4 25.3Q124.3 25 124.1 24.8Q123.9 24.6 123.6 24.5Q123.3 24.4 122.9 24.4Q121.8 24.4 121.4 25.2Q120.9 25.9 120.9 27.3V28.9Q120.9 30.3 121.4 31.1Q121.8 31.9 122.9 31.9Q123.3 31.9 123.6 31.7Q123.9 31.6 124.1 31.4Q124.3 31.2 124.4 30.9Q124.6 30.6 124.7 30.3L126.1 30.7Q125.9 31.2 125.7 31.7Q125.4 32.1 125 32.5Q124.6 32.8 124.1 33Q123.6 33.2 122.9 33.2ZM135 28.7H131.8V33H130.2V23.2H131.8V27.4H135V23.2H136.6V33H135ZM142.7 33H141.2V23.2H144.8Q146.2 23.2 147 24Q147.7 24.8 147.7 26.2Q147.7 27.3 147.2 28Q146.6 28.7 145.6 28.9L147.8 33H146.1L144 29.1H142.7ZM144.6 27.8Q146.1 27.8 146.1 26.5V25.9Q146.1 24.5 144.6 24.5H142.7V27.8ZM155 33.2Q154.1 33.2 153.4 32.8Q152.7 32.5 152.3 31.8Q151.8 31.2 151.6 30.3Q151.4 29.3 151.4 28.1Q151.4 26.9 151.6 26Q151.8 25 152.3 24.4Q152.7 23.7 153.4 23.4Q154.1 23.1 155 23.1Q155.9 23.1 156.6 23.4Q157.3 23.7 157.7 24.4Q158.2 25 158.4 26Q158.6 26.9 158.6 28.1Q158.6 29.3 158.4 30.3Q158.2 31.2 157.7 31.8Q157.3 32.5 156.6 32.8Q155.9 33.2 155 33.2ZM155 31.9Q156.1 31.9 156.5 31.1Q156.9 30.3 156.9 28.9V27.3Q156.9 25.9 156.5 25.2Q156.1 24.4 155 24.4Q154 24.4 153.5 25.2Q153.1 25.9 153.1 27.3V28.9Q153.1 30.3 153.5 31.1Q154 31.9 155 31.9ZM162.8 33V23.2H168.9V24.5H164.4V27.4H168.8V28.7H164.4V31.7H168.9V33ZM173.6 33V23.2H177.2Q178.6 23.2 179.4 24Q180.1 24.8 180.1 26.2Q180.1 27.5 179.4 28.3Q178.6 29.1 177.2 29.1H175.1V33ZM175.1 27.8H177Q178.4 27.8 178.4 26.5V25.9Q178.4 24.5 177 24.5H175.1ZM184.4 33V23.2H188Q189.4 23.2 190.2 24Q190.9 24.8 190.9 26.2Q190.9 27.5 190.2 28.3Q189.4 29.1 188 29.1H185.9V33ZM185.9 27.8H187.8Q189.2 27.8 189.2 26.5V25.9Q189.2 24.5 187.8 24.5H185.9ZM195.2 33V23.2H201.3V24.5H196.8V27.4H201.2V28.7H196.8V31.7H201.3V33ZM206.3 33V23.2H207.9V31.7H212.3V33ZM219.8 33.1Q219.1 33.1 218.9 32.9Q218.6 32.6 218.6 32.2V31.8Q218.6 31.4 218.9 31.1Q219.1 30.8 219.8 30.8Q220.5 30.8 220.7 31.1Q221 31.4 221 31.8V32.2Q221 32.6 220.7 32.9Q220.5 33.1 219.8 33.1ZM230.9 33.2Q229 33.2 228.1 31.9Q227.2 30.5 227.2 28.1Q227.2 25.7 228.1 24.4Q229 23.1 230.9 23.1Q231.6 23.1 232.1 23.2Q232.6 23.4 233 23.8Q233.4 24.1 233.7 24.5Q233.9 25 234.1 25.5L232.7 26Q232.6 25.6 232.4 25.3Q232.3 25 232.1 24.8Q231.9 24.6 231.6 24.5Q231.3 24.4 230.9 24.4Q229.8 24.4 229.4 25.2Q228.9 25.9 228.9 27.3V28.9Q228.9 30.3 229.4 31.1Q229.8 31.9 230.9 31.9Q231.3 31.9 231.6 31.7Q231.9 31.6 232.1 31.4Q232.3 31.2 232.4 30.9Q232.6 30.6 232.7 30.3L234.1 30.7Q233.9 31.2 233.7 31.7Q233.4 32.1 233 32.5Q232.6 32.8 232.1 33Q231.6 33.2 230.9 33.2ZM241.4 33.2Q240.5 33.2 239.8 32.8Q239.1 32.5 238.7 31.8Q238.2 31.2 238 30.3Q237.8 29.3 237.8 28.1Q237.8 26.9 238 26Q238.2 25 238.7 24.4Q239.1 23.7 239.8 23.4Q240.5 23.1 241.4 23.1Q242.3 23.1 243 23.4Q243.7 23.7 244.1 24.4Q244.6 25 244.8 26Q245 26.9 245 28.1Q245 29.3 244.8 30.3Q244.6 31.2 244.1 31.8Q243.7 32.5 243 32.8Q242.3 33.2 241.4 33.2ZM241.4 31.9Q242.5 31.9 242.9 31.1Q243.3 30.3 243.3 28.9V27.3Q243.3 25.9 242.9 25.2Q242.5 24.4 241.4 24.4Q240.4 24.4 239.9 25.2Q239.5 25.9 239.5 27.3V28.9Q239.5 30.3 239.9 31.1Q240.4 31.9 241.4 31.9ZM254.2 28.3 254.3 25.4H254.2L252.2 30.4L250.2 25.4H250.1L250.2 28.3V33H248.8V23.2H250.7L252.2 27.1H252.3L253.8 23.2H255.6V33H254.2ZM277.3 28.7H276.1V27.2L276.1 26.4L276.1 26.4L275.2 27.3L270.8 31.7L269.9 30.8L274.3 26.4L275.3 25.6L275.3 25.5L274.4 25.6H272.9V24.4H277.3Z"/></svg>
