<svg xmlns="http://www.w3.org/2000/svg" viewBox="0 0 1280 500" width="1280" height="500" role="img" aria-label="Time circuits. Present time 05 October 2026. 38985 contributions this year over 233 days; last on 2026-10-05."><title>Time circuits. Present time 05 October 2026. 38985 contributions this year over 233 days; last on 2026-10-05.</title><style>@media (prefers-reduced-motion: reduce){*{animation:none!important}}</style><rect width="1280" height="500" fill="#ECEAE4"/><path fill="#5C5A55"  d="M68.6 54.1V62H67.2V54.1H64.3V52.9H71.5V54.1ZM75.4 62V60.9H77.6V54H75.4V52.9H81.2V54H79V60.9H81.2V62ZM90.6 57.7 90.6 54.9H90.5L88.7 59.6L86.9 54.9H86.8L86.8 57.7V62H85.5V52.9H87.3L88.7 56.5H88.8L90.2 52.9H91.9V62H90.6ZM96.3 62V52.9H102V54.1H97.8V56.8H101.8V58H97.8V60.8H102V62ZM120.2 62.2Q118.4 62.2 117.6 60.9Q116.8 59.7 116.8 57.5Q116.8 55.2 117.6 54Q118.4 52.8 120.2 52.8Q120.8 52.8 121.3 52.9Q121.8 53.1 122.1 53.4Q122.5 53.7 122.7 54.1Q123 54.6 123.1 55L121.8 55.5Q121.7 55.1 121.6 54.9Q121.5 54.6 121.3 54.4Q121.1 54.2 120.8 54.1Q120.5 54 120.1 54Q119.2 54 118.7 54.7Q118.3 55.4 118.3 56.7V58.2Q118.3 59.5 118.7 60.2Q119.2 60.9 120.1 60.9Q120.5 60.9 120.8 60.8Q121.1 60.7 121.3 60.5Q121.5 60.3 121.6 60Q121.7 59.8 121.8 59.5L123.1 59.9Q123 60.4 122.7 60.8Q122.5 61.2 122.1 61.5Q121.8 61.8 121.3 62Q120.8 62.2 120.2 62.2ZM127.4 62V60.9H129.6V54H127.4V52.9H133.2V54H131V60.9H133.2V62ZM139.3 62H137.9V52.9H141.3Q142.6 52.9 143.3 53.7Q144 54.4 144 55.7Q144 56.7 143.4 57.4Q142.9 58 142 58.2L144.1 62H142.5L140.5 58.3H139.3ZM141.1 57.2Q142.4 57.2 142.4 55.9V55.4Q142.4 54.1 141.1 54.1H139.3V57.2ZM151.4 62.2Q149.6 62.2 148.8 60.9Q148 59.7 148 57.5Q148 55.2 148.8 54Q149.6 52.8 151.4 52.8Q152 52.8 152.5 52.9Q153 53.1 153.3 53.4Q153.7 53.7 153.9 54.1Q154.2 54.6 154.3 55L153 55.5Q152.9 55.1 152.8 54.9Q152.7 54.6 152.5 54.4Q152.3 54.2 152 54.1Q151.7 54 151.3 54Q150.4 54 149.9 54.7Q149.5 55.4 149.5 56.7V58.2Q149.5 59.5 149.9 60.2Q150.4 60.9 151.3 60.9Q151.7 60.9 152 60.8Q152.3 60.7 152.5 60.5Q152.7 60.3 152.8 60Q152.9 59.8 153 59.5L154.3 59.9Q154.2 60.4 153.9 60.8Q153.7 61.2 153.3 61.5Q153 61.8 152.5 62Q152 62.2 151.4 62.2ZM160 52.9V58.5Q160 59.1 160 59.5Q160 60 160.2 60.3Q160.3 60.6 160.6 60.8Q161 60.9 161.5 60.9Q162 60.9 162.4 60.8Q162.7 60.6 162.8 60.3Q163 60 163 59.5Q163 59.1 163 58.5V52.9H164.5V58.2Q164.5 59.2 164.4 60Q164.3 60.7 164 61.2Q163.6 61.7 163 61.9Q162.4 62.2 161.5 62.2Q160.6 62.2 160 61.9Q159.4 61.7 159 61.2Q158.7 60.7 158.6 60Q158.5 59.2 158.5 58.2V52.9ZM169 62V60.9H171.2V54H169V52.9H174.8V54H172.6V60.9H174.8V62ZM183 54.1V62H181.6V54.1H178.7V52.9H185.9V54.1ZM192.6 62.2Q191.4 62.2 190.6 61.7Q189.8 61.3 189.3 60.6L190.2 59.7Q190.8 60.4 191.3 60.7Q191.9 60.9 192.7 60.9Q193.5 60.9 194 60.6Q194.5 60.2 194.5 59.4Q194.5 58.9 194.1 58.5Q193.8 58.2 193 58.1L192 57.9Q191.3 57.8 190.9 57.6Q190.4 57.3 190.2 57Q189.9 56.7 189.8 56.3Q189.6 55.9 189.6 55.4Q189.6 54.1 190.5 53.4Q191.3 52.8 192.8 52.8Q193.8 52.8 194.6 53.1Q195.4 53.5 195.8 54.1L194.9 55Q194.5 54.5 194 54.3Q193.5 54 192.8 54Q192 54 191.5 54.3Q191.1 54.7 191.1 55.3Q191.1 55.9 191.4 56.2Q191.8 56.5 192.6 56.7L193.6 56.8Q194.8 57.1 195.4 57.7Q195.9 58.4 195.9 59.4Q195.9 60 195.7 60.5Q195.5 61 195.1 61.4Q194.7 61.8 194 62Q193.4 62.2 192.6 62.2ZM213.5 59.1Q212.9 59.1 212.6 58.9Q212.4 58.6 212.4 58.2V57.9Q212.4 57.5 212.6 57.2Q212.9 57 213.5 57Q214.1 57 214.4 57.2Q214.6 57.5 214.6 57.9V58.2Q214.6 58.6 214.4 58.9Q214.1 59.1 213.5 59.1ZM237.5 62H231.2V60.6L234.2 58Q234.9 57.4 235.3 56.8Q235.7 56.3 235.7 55.7V55.5Q235.7 54.8 235.3 54.4Q234.9 54 234.1 54Q233.4 54 233 54.4Q232.6 54.8 232.4 55.5L231.1 55Q231.2 54.6 231.5 54.2Q231.7 53.8 232.1 53.4Q232.5 53.1 233 53Q233.5 52.8 234.2 52.8Q234.9 52.8 235.5 53Q236 53.2 236.4 53.5Q236.8 53.9 237 54.4Q237.2 54.9 237.2 55.4Q237.2 56 237 56.4Q236.9 56.9 236.6 57.3Q236.3 57.7 235.9 58.1Q235.5 58.5 235 58.9L232.8 60.8H237.5ZM244.7 62.2Q243.8 62.2 243.2 61.8Q242.6 61.5 242.2 60.9Q241.8 60.3 241.6 59.5Q241.4 58.6 241.4 57.5Q241.4 56.4 241.6 55.5Q241.8 54.6 242.2 54Q242.6 53.4 243.2 53.1Q243.8 52.8 244.7 52.8Q245.6 52.8 246.2 53.1Q246.8 53.4 247.2 54Q247.6 54.6 247.8 55.5Q248 56.4 248 57.5Q248 58.6 247.8 59.5Q247.6 60.3 247.2 60.9Q246.8 61.5 246.2 61.8Q245.6 62.2 244.7 62.2ZM244.7 61Q245.7 61 246.1 60.2Q246.5 59.5 246.5 58.2V56.7Q246.5 55.4 246.1 54.7Q245.7 54 244.7 54Q244.2 54 243.9 54.2Q243.5 54.3 243.3 54.7Q243.1 55.1 243 55.6Q242.9 56.1 242.9 56.7V58.2Q242.9 58.9 243 59.4Q243.1 59.9 243.3 60.2Q243.5 60.6 243.9 60.8Q244.2 61 244.7 61ZM244.7 58.2Q244.2 58.2 244.1 58Q243.9 57.9 243.9 57.6V57.3Q243.9 57.1 244.1 56.9Q244.2 56.7 244.7 56.7Q245.2 56.7 245.3 56.9Q245.5 57.1 245.5 57.3V57.6Q245.5 57.9 245.3 58Q245.2 58.2 244.7 58.2ZM258.3 62H252V60.6L255 58Q255.7 57.4 256.1 56.8Q256.5 56.3 256.5 55.7V55.5Q256.5 54.8 256.1 54.4Q255.7 54 254.9 54Q254.2 54 253.8 54.4Q253.4 54.8 253.2 55.5L251.9 55Q252 54.6 252.3 54.2Q252.5 53.8 252.9 53.4Q253.3 53.1 253.8 53Q254.3 52.8 255 52.8Q255.7 52.8 256.3 53Q256.8 53.2 257.2 53.5Q257.6 53.9 257.8 54.4Q258 54.9 258 55.4Q258 56 257.8 56.4Q257.7 56.9 257.4 57.3Q257.1 57.7 256.7 58.1Q256.3 58.5 255.8 58.9L253.6 60.8H258.3ZM265.5 62.2Q264.8 62.2 264.2 61.9Q263.6 61.7 263.1 61.2Q262.7 60.7 262.5 60.1Q262.3 59.4 262.3 58.6Q262.3 57.6 262.6 56.8Q262.9 55.9 263.4 55.2Q263.8 54.4 264.4 53.9Q265 53.3 265.6 52.9H267.5Q266.8 53.5 266.1 54Q265.5 54.5 265.1 55.1Q264.6 55.6 264.3 56.2Q264 56.8 263.8 57.6L263.9 57.6Q264 57.3 264.2 57.1Q264.4 56.8 264.7 56.7Q264.9 56.5 265.3 56.4Q265.6 56.3 266 56.3Q266.6 56.3 267.1 56.5Q267.6 56.7 268 57Q268.3 57.4 268.5 57.9Q268.8 58.4 268.8 59.1Q268.8 59.8 268.5 60.3Q268.3 60.9 267.9 61.3Q267.5 61.7 266.9 61.9Q266.3 62.2 265.5 62.2ZM265.5 61Q266.3 61 266.8 60.5Q267.3 60.1 267.3 59.3V59.1Q267.3 58.3 266.8 57.9Q266.3 57.4 265.5 57.4Q264.7 57.4 264.2 57.9Q263.8 58.3 263.8 59.1V59.3Q263.8 60.1 264.2 60.5Q264.7 61 265.5 61Z"/><path fill="#8E8C86"  d="M888.2 52.9V58.5Q888.2 59.1 888.2 59.5Q888.2 60 888.4 60.3Q888.5 60.6 888.8 60.8Q889.2 60.9 889.7 60.9Q890.2 60.9 890.6 60.8Q890.9 60.6 891 60.3Q891.2 60 891.2 59.5Q891.2 59.1 891.2 58.5V52.9H892.7V58.2Q892.7 59.2 892.6 60Q892.5 60.7 892.2 61.2Q891.8 61.7 891.2 61.9Q890.6 62.2 889.7 62.2Q888.8 62.2 888.2 61.9Q887.6 61.7 887.2 61.2Q886.9 60.7 886.8 60Q886.7 59.2 886.7 58.2V52.9ZM897.3 62V52.9H900.7Q902 52.9 902.7 53.7Q903.3 54.4 903.3 55.7Q903.3 56.9 902.7 57.7Q902 58.4 900.7 58.4H898.7V62ZM898.7 57.2H900.5Q901.8 57.2 901.8 55.9V55.4Q901.8 54.1 900.5 54.1H898.7ZM907.7 52.9H910.4Q912.1 52.9 913 54.1Q913.8 55.2 913.8 57.5Q913.8 59.7 913 60.8Q912.1 62 910.4 62H907.7ZM910.3 60.8Q911.3 60.8 911.8 60.1Q912.3 59.5 912.3 58.2V56.7Q912.3 55.5 911.8 54.8Q911.3 54.1 910.3 54.1H909.1V60.8ZM923 62 922.3 59.6H919.4L918.7 62H917.3L919.9 52.9H921.9L924.6 62ZM920.9 54.4H920.8L919.7 58.4H922ZM932 54.1V62H930.6V54.1H927.7V52.9H934.9V54.1ZM938.9 62V52.9H944.6V54.1H940.4V56.8H944.4V58H940.4V60.8H944.6V62ZM949.3 52.9H952Q953.7 52.9 954.6 54.1Q955.4 55.2 955.4 57.5Q955.4 59.7 954.6 60.8Q953.7 62 952 62H949.3ZM951.9 60.8Q952.9 60.8 953.4 60.1Q953.9 59.5 953.9 58.2V56.7Q953.9 55.5 953.4 54.8Q952.9 54.1 951.9 54.1H950.7V60.8ZM970.1 52.9H972.8Q974.5 52.9 975.4 54.1Q976.2 55.2 976.2 57.5Q976.2 59.7 975.4 60.8Q974.5 62 972.8 62H970.1ZM972.7 60.8Q973.7 60.8 974.2 60.1Q974.7 59.5 974.7 58.2V56.7Q974.7 55.5 974.2 54.8Q973.7 54.1 972.7 54.1H971.5V60.8ZM985.4 62 984.7 59.6H981.8L981.1 62H979.7L982.3 52.9H984.3L987 62ZM983.3 54.4H983.2L982.1 58.4H984.4ZM990.8 62V60.9H993V54H990.8V52.9H996.6V54H994.4V60.9H996.6V62ZM1001.6 62V52.9H1003.1V60.8H1007.2V62ZM1013.8 62V58.6L1010.8 52.9H1012.4L1013.5 55.2L1014.5 57.1H1014.6L1015.5 55.2L1016.7 52.9H1018.2L1015.2 58.6V62ZM1035.3 59.1Q1034.7 59.1 1034.4 58.9Q1034.2 58.6 1034.2 58.2V57.9Q1034.2 57.5 1034.4 57.2Q1034.7 57 1035.3 57Q1035.9 57 1036.2 57.2Q1036.4 57.5 1036.4 57.9V58.2Q1036.4 58.6 1036.2 58.9Q1035.9 59.1 1035.3 59.1ZM1056.1 62.2Q1055.2 62.2 1054.6 61.8Q1054 61.5 1053.6 60.9Q1053.2 60.3 1053 59.5Q1052.8 58.6 1052.8 57.5Q1052.8 56.4 1053 55.5Q1053.2 54.6 1053.6 54Q1054 53.4 1054.6 53.1Q1055.2 52.8 1056.1 52.8Q1057 52.8 1057.6 53.1Q1058.2 53.4 1058.6 54Q1059 54.6 1059.2 55.5Q1059.4 56.4 1059.4 57.5Q1059.4 58.6 1059.2 59.5Q1059 60.3 1058.6 60.9Q1058.2 61.5 1057.6 61.8Q1057 62.2 1056.1 62.2ZM1056.1 61Q1057.1 61 1057.5 60.2Q1057.9 59.5 1057.9 58.2V56.7Q1057.9 55.4 1057.5 54.7Q1057.1 54 1056.1 54Q1055.6 54 1055.3 54.2Q1054.9 54.3 1054.7 54.7Q1054.5 55.1 1054.4 55.6Q1054.3 56.1 1054.3 56.7V58.2Q1054.3 58.9 1054.4 59.4Q1054.5 59.9 1054.7 60.2Q1054.9 60.6 1055.3 60.8Q1055.6 61 1056.1 61ZM1056.1 58.2Q1055.6 58.2 1055.5 58Q1055.3 57.9 1055.3 57.6V57.3Q1055.3 57.1 1055.5 56.9Q1055.6 56.7 1056.1 56.7Q1056.6 56.7 1056.7 56.9Q1056.9 57.1 1056.9 57.3V57.6Q1056.9 57.9 1056.7 58Q1056.6 58.2 1056.1 58.2ZM1069.2 54.2H1065.1L1064.9 57.4H1065Q1065.3 56.9 1065.7 56.6Q1066.2 56.2 1067 56.2Q1067.5 56.2 1068 56.4Q1068.5 56.6 1068.9 57Q1069.3 57.4 1069.5 57.9Q1069.7 58.4 1069.7 59.1Q1069.7 59.8 1069.5 60.3Q1069.3 60.9 1068.9 61.3Q1068.4 61.7 1067.8 61.9Q1067.2 62.2 1066.4 62.2Q1065.8 62.2 1065.3 62Q1064.9 61.9 1064.5 61.7Q1064.1 61.4 1063.9 61.1Q1063.6 60.8 1063.4 60.5L1064.4 59.7Q1064.6 60 1064.8 60.2Q1065 60.4 1065.2 60.6Q1065.5 60.8 1065.8 60.8Q1066.1 60.9 1066.5 60.9Q1067.3 60.9 1067.7 60.5Q1068.2 60 1068.2 59.2V59.1Q1068.2 58.3 1067.7 57.9Q1067.3 57.4 1066.5 57.4Q1065.8 57.4 1065.5 57.7Q1065.1 57.9 1064.9 58.2L1063.7 58L1064 52.9H1069.2ZM1087.3 62.2Q1086.4 62.2 1085.8 61.8Q1085.2 61.5 1084.8 60.9Q1084.4 60.3 1084.2 59.5Q1084 58.6 1084 57.5Q1084 56.4 1084.2 55.5Q1084.4 54.6 1084.8 54Q1085.2 53.4 1085.8 53.1Q1086.4 52.8 1087.3 52.8Q1088.2 52.8 1088.8 53.1Q1089.4 53.4 1089.8 54Q1090.2 54.6 1090.4 55.5Q1090.6 56.4 1090.6 57.5Q1090.6 58.6 1090.4 59.5Q1090.2 60.3 1089.8 60.9Q1089.4 61.5 1088.8 61.8Q1088.2 62.2 1087.3 62.2ZM1087.3 60.9Q1088.3 60.9 1088.7 60.2Q1089.1 59.5 1089.1 58.2V56.7Q1089.1 55.4 1088.7 54.7Q1088.3 54 1087.3 54Q1086.3 54 1085.9 54.7Q1085.5 55.4 1085.5 56.7V58.2Q1085.5 59.5 1085.9 60.2Q1086.3 60.9 1087.3 60.9ZM1098 62.2Q1096.2 62.2 1095.4 60.9Q1094.6 59.7 1094.6 57.5Q1094.6 55.2 1095.4 54Q1096.2 52.8 1098 52.8Q1098.6 52.8 1099.1 52.9Q1099.6 53.1 1099.9 53.4Q1100.3 53.7 1100.5 54.1Q1100.8 54.6 1100.9 55L1099.6 55.5Q1099.5 55.1 1099.4 54.9Q1099.3 54.6 1099.1 54.4Q1098.9 54.2 1098.6 54.1Q1098.3 54 1097.9 54Q1097 54 1096.5 54.7Q1096.1 55.4 1096.1 56.7V58.2Q1096.1 59.5 1096.5 60.2Q1097 60.9 1097.9 60.9Q1098.3 60.9 1098.6 60.8Q1098.9 60.7 1099.1 60.5Q1099.3 60.3 1099.4 60Q1099.5 59.8 1099.6 59.5L1100.9 59.9Q1100.8 60.4 1100.5 60.8Q1100.3 61.2 1099.9 61.5Q1099.6 61.8 1099.1 62Q1098.6 62.2 1098 62.2ZM1108.8 54.1V62H1107.4V54.1H1104.5V52.9H1111.7V54.1ZM1126.1 62V60.8H1128.7V54H1128.6L1126.5 56.2L1125.6 55.4L1127.9 52.9H1130.1V60.8H1132.3V62ZM1138.9 56.7Q1139.8 56.7 1140.2 56.3Q1140.6 55.9 1140.6 55.4V55.3Q1140.6 54.7 1140.2 54.3Q1139.8 54 1139.1 54Q1138.5 54 1138 54.3Q1137.5 54.6 1137.2 55.1L1136.2 54.3Q1136.5 54 1136.7 53.7Q1137 53.4 1137.4 53.2Q1137.7 53 1138.2 52.9Q1138.6 52.8 1139.2 52.8Q1139.8 52.8 1140.4 52.9Q1140.9 53.1 1141.3 53.4Q1141.7 53.7 1141.9 54.1Q1142.2 54.6 1142.2 55.1Q1142.2 55.5 1142 55.9Q1141.9 56.2 1141.6 56.5Q1141.4 56.8 1141.1 56.9Q1140.8 57.1 1140.4 57.2V57.3Q1140.8 57.3 1141.1 57.5Q1141.5 57.7 1141.8 58Q1142 58.2 1142.2 58.6Q1142.3 59 1142.3 59.5Q1142.3 60.1 1142.1 60.6Q1141.9 61.1 1141.4 61.4Q1141 61.8 1140.4 62Q1139.8 62.2 1139 62.2Q1138.4 62.2 1137.9 62Q1137.4 61.9 1137 61.7Q1136.7 61.4 1136.4 61.1Q1136.1 60.8 1135.9 60.5L1137 59.7Q1137.3 60.2 1137.8 60.6Q1138.2 60.9 1139 60.9Q1139.9 60.9 1140.4 60.5Q1140.8 60.1 1140.8 59.4V59.3Q1140.8 58.6 1140.3 58.3Q1139.9 57.9 1139 57.9H1138V56.7ZM1149.7 62.1Q1149.1 62.1 1148.8 61.9Q1148.6 61.6 1148.6 61.2V60.9Q1148.6 60.5 1148.8 60.3Q1149.1 60 1149.7 60Q1150.3 60 1150.6 60.3Q1150.8 60.5 1150.8 60.9V61.2Q1150.8 61.6 1150.6 61.9Q1150.3 62.1 1149.7 62.1ZM1149.7 57.3Q1149.1 57.3 1148.8 57Q1148.6 56.8 1148.6 56.4V56.1Q1148.6 55.7 1148.8 55.4Q1149.1 55.2 1149.7 55.2Q1150.3 55.2 1150.6 55.4Q1150.8 55.7 1150.8 56.1V56.4Q1150.8 56.8 1150.6 57Q1150.3 57.3 1149.7 57.3ZM1159.7 56.7Q1160.6 56.7 1161 56.3Q1161.4 55.9 1161.4 55.4V55.3Q1161.4 54.7 1161 54.3Q1160.6 54 1159.9 54Q1159.3 54 1158.8 54.3Q1158.3 54.6 1158 55.1L1157 54.3Q1157.3 54 1157.5 53.7Q1157.8 53.4 1158.2 53.2Q1158.5 53 1159 52.9Q1159.4 52.8 1160 52.8Q1160.6 52.8 1161.2 52.9Q1161.7 53.1 1162.1 53.4Q1162.5 53.7 1162.7 54.1Q1163 54.6 1163 55.1Q1163 55.5 1162.8 55.9Q1162.7 56.2 1162.4 56.5Q1162.2 56.8 1161.9 56.9Q1161.6 57.1 1161.2 57.2V57.3Q1161.6 57.3 1161.9 57.5Q1162.3 57.7 1162.6 58Q1162.8 58.2 1163 58.6Q1163.1 59 1163.1 59.5Q1163.1 60.1 1162.9 60.6Q1162.7 61.1 1162.2 61.4Q1161.8 61.8 1161.2 62Q1160.6 62.2 1159.8 62.2Q1159.2 62.2 1158.7 62Q1158.2 61.9 1157.8 61.7Q1157.5 61.4 1157.2 61.1Q1156.9 60.8 1156.7 60.5L1157.8 59.7Q1158.1 60.2 1158.6 60.6Q1159 60.9 1159.8 60.9Q1160.7 60.9 1161.2 60.5Q1161.6 60.1 1161.6 59.4V59.3Q1161.6 58.6 1161.1 58.3Q1160.7 57.9 1159.8 57.9H1158.8V56.7ZM1171.3 62V60.2H1167V59L1170.8 52.9H1172.7V59.1H1174V60.2H1172.7V62ZM1168.2 59.1H1171.3V54.3H1171.2ZM1191.6 62.2Q1189.8 62.2 1189 60.9Q1188.2 59.7 1188.2 57.5Q1188.2 55.2 1189 54Q1189.8 52.8 1191.6 52.8Q1192.2 52.8 1192.7 52.9Q1193.2 53.1 1193.5 53.4Q1193.9 53.7 1194.1 54.1Q1194.4 54.6 1194.5 55L1193.2 55.5Q1193.1 55.1 1193 54.9Q1192.9 54.6 1192.7 54.4Q1192.5 54.2 1192.2 54.1Q1191.9 54 1191.5 54Q1190.6 54 1190.1 54.7Q1189.7 55.4 1189.7 56.7V58.2Q1189.7 59.5 1190.1 60.2Q1190.6 60.9 1191.5 60.9Q1191.9 60.9 1192.2 60.8Q1192.5 60.7 1192.7 60.5Q1192.9 60.3 1193 60Q1193.1 59.8 1193.2 59.5L1194.5 59.9Q1194.4 60.4 1194.1 60.8Q1193.9 61.2 1193.5 61.5Q1193.2 61.8 1192.7 62Q1192.2 62.2 1191.6 62.2ZM1198.9 62V52.9H1204.6V54.1H1200.4V56.8H1204.4V58H1200.4V60.8H1204.6V62ZM1212.8 54.1V62H1211.4V54.1H1208.5V52.9H1215.7V54.1Z"/><rect x="64" y="96" width="1152" height="88" fill="none" stroke="#CFCBC1"/><path fill="#0B0B0B"  d="M95.6 127.3H104.8Q110.7 127.3 113.5 131.2Q116.3 135.1 116.3 142.6Q116.3 150.2 113.5 154.1Q110.7 158 104.8 158H95.6ZM104.5 154Q107.8 154 109.5 151.7Q111.1 149.4 111.1 145.2V140.1Q111.1 135.9 109.5 133.6Q107.8 131.3 104.5 131.3H100.5V154ZM124.2 158V127.3H143.4V131.4H129.1V140.4H142.9V144.5H129.1V153.9H143.4V158ZM162.9 158.5Q157 158.5 154.2 154.4Q151.4 150.3 151.4 142.6Q151.4 135 154.2 130.9Q157 126.8 162.9 126.8Q165.1 126.8 166.8 127.4Q168.4 127.9 169.6 129Q170.8 130 171.6 131.4Q172.4 132.8 173 134.4L168.5 135.9Q168.2 134.8 167.7 133.9Q167.3 133 166.6 132.3Q166 131.6 165.1 131.2Q164.2 130.9 162.8 130.9Q159.6 130.9 158.1 133.3Q156.6 135.8 156.6 140V145.2Q156.6 149.5 158.1 151.9Q159.6 154.4 162.8 154.4Q164.2 154.4 165.1 154Q166 153.6 166.6 153Q167.3 152.3 167.7 151.4Q168.2 150.5 168.5 149.4L173 150.9Q172.4 152.5 171.6 153.9Q170.8 155.3 169.6 156.3Q168.4 157.3 166.8 157.9Q165.1 158.5 162.9 158.5Z"/><g transform="translate(230.0 114.0) scale(2.364) skewX(-7)"><polygon points="2.3,1 9.7,1 10.6,2 9.7,3 2.3,3 1.4,2" fill="#0B0B0B"/><polygon points="2.3,10 9.7,10 10.6,11 9.7,12 2.3,12 1.4,11" fill="#0B0B0B"/><polygon points="2.3,19 9.7,19 10.6,20 9.7,21 2.3,21 1.4,20" fill="#0B0B0B"/><polygon points="1.4,2.9 2.4,3.8 2.4,9.2 1.4,10.1 0.3999999999999999,9.2 0.3999999999999999,3.8" fill="#0B0B0B" fill-opacity="0.07"/><polygon points="10.6,2.9 11.6,3.8 11.6,9.2 10.6,10.1 9.6,9.2 9.6,3.8" fill="#0B0B0B"/><polygon points="1.4,11.9 2.4,12.8 2.4,18.2 1.4,19.1 0.3999999999999999,18.2 0.3999999999999999,12.8" fill="#0B0B0B" fill-opacity="0.07"/><polygon points="10.6,11.9 11.6,12.8 11.6,18.2 10.6,19.1 9.6,18.2 9.6,12.8" fill="#0B0B0B"/></g><g transform="translate(266.3 114.0) scale(2.364) skewX(-7)"><polygon points="2.3,1 9.7,1 10.6,2 9.7,3 2.3,3 1.4,2" fill="#0B0B0B" fill-opacity="0.07"/><polygon points="2.3,10 9.7,10 10.6,11 9.7,12 2.3,12 1.4,11" fill="#0B0B0B" fill-opacity="0.07"/><polygon points="2.3,19 9.7,19 10.6,20 9.7,21 2.3,21 1.4,20" fill="#0B0B0B" fill-opacity="0.07"/><polygon points="1.4,2.9 2.4,3.8 2.4,9.2 1.4,10.1 0.3999999999999999,9.2 0.3999999999999999,3.8" fill="#0B0B0B" fill-opacity="0.07"/><polygon points="10.6,2.9 11.6,3.8 11.6,9.2 10.6,10.1 9.6,9.2 9.6,3.8" fill="#0B0B0B"/><polygon points="1.4,11.9 2.4,12.8 2.4,18.2 1.4,19.1 0.3999999999999999,18.2 0.3999999999999999,12.8" fill="#0B0B0B" fill-opacity="0.07"/><polygon points="10.6,11.9 11.6,12.8 11.6,18.2 10.6,19.1 9.6,18.2 9.6,12.8" fill="#0B0B0B"/></g><g transform="translate(346.6 114.0) scale(2.364) skewX(-7)"><polygon points="2.3,1 9.7,1 10.6,2 9.7,3 2.3,3 1.4,2" fill="#0B0B0B"/><polygon points="2.3,10 9.7,10 10.6,11 9.7,12 2.3,12 1.4,11" fill="#0B0B0B"/><polygon points="2.3,19 9.7,19 10.6,20 9.7,21 2.3,21 1.4,20" fill="#0B0B0B"/><polygon points="1.4,2.9 2.4,3.8 2.4,9.2 1.4,10.1 0.3999999999999999,9.2 0.3999999999999999,3.8" fill="#0B0B0B" fill-opacity="0.07"/><polygon points="10.6,2.9 11.6,3.8 11.6,9.2 10.6,10.1 9.6,9.2 9.6,3.8" fill="#0B0B0B"/><polygon points="1.4,11.9 2.4,12.8 2.4,18.2 1.4,19.1 0.3999999999999999,18.2 0.3999999999999999,12.8" fill="#0B0B0B"/><polygon points="10.6,11.9 11.6,12.8 11.6,18.2 10.6,19.1 9.6,18.2 9.6,12.8" fill="#0B0B0B" fill-opacity="0.07"/></g><g transform="translate(382.9 114.0) scale(2.364) skewX(-7)"><polygon points="2.3,1 9.7,1 10.6,2 9.7,3 2.3,3 1.4,2" fill="#0B0B0B"/><polygon points="2.3,10 9.7,10 10.6,11 9.7,12 2.3,12 1.4,11" fill="#0B0B0B" fill-opacity="0.07"/><polygon points="2.3,19 9.7,19 10.6,20 9.7,21 2.3,21 1.4,20" fill="#0B0B0B"/><polygon points="1.4,2.9 2.4,3.8 2.4,9.2 1.4,10.1 0.3999999999999999,9.2 0.3999999999999999,3.8" fill="#0B0B0B"/><polygon points="10.6,2.9 11.6,3.8 11.6,9.2 10.6,10.1 9.6,9.2 9.6,3.8" fill="#0B0B0B"/><polygon points="1.4,11.9 2.4,12.8 2.4,18.2 1.4,19.1 0.3999999999999999,18.2 0.3999999999999999,12.8" fill="#0B0B0B"/><polygon points="10.6,11.9 11.6,12.8 11.6,18.2 10.6,19.1 9.6,18.2 9.6,12.8" fill="#0B0B0B"/></g><g transform="translate(419.2 114.0) scale(2.364) skewX(-7)"><polygon points="2.3,1 9.7,1 10.6,2 9.7,3 2.3,3 1.4,2" fill="#0B0B0B"/><polygon points="2.3,10 9.7,10 10.6,11 9.7,12 2.3,12 1.4,11" fill="#0B0B0B"/><polygon points="2.3,19 9.7,19 10.6,20 9.7,21 2.3,21 1.4,20" fill="#0B0B0B"/><polygon points="1.4,2.9 2.4,3.8 2.4,9.2 1.4,10.1 0.3999999999999999,9.2 0.3999999999999999,3.8" fill="#0B0B0B" fill-opacity="0.07"/><polygon points="10.6,2.9 11.6,3.8 11.6,9.2 10.6,10.1 9.6,9.2 9.6,3.8" fill="#0B0B0B"/><polygon points="1.4,11.9 2.4,12.8 2.4,18.2 1.4,19.1 0.3999999999999999,18.2 0.3999999999999999,12.8" fill="#0B0B0B"/><polygon points="10.6,11.9 11.6,12.8 11.6,18.2 10.6,19.1 9.6,18.2 9.6,12.8" fill="#0B0B0B" fill-opacity="0.07"/></g><g transform="translate(455.5 114.0) scale(2.364) skewX(-7)"><polygon points="2.3,1 9.7,1 10.6,2 9.7,3 2.3,3 1.4,2" fill="#0B0B0B"/><polygon points="2.3,10 9.7,10 10.6,11 9.7,12 2.3,12 1.4,11" fill="#0B0B0B"/><polygon points="2.3,19 9.7,19 10.6,20 9.7,21 2.3,21 1.4,20" fill="#0B0B0B"/><polygon points="1.4,2.9 2.4,3.8 2.4,9.2 1.4,10.1 0.3999999999999999,9.2 0.3999999999999999,3.8" fill="#0B0B0B"/><polygon points="10.6,2.9 11.6,3.8 11.6,9.2 10.6,10.1 9.6,9.2 9.6,3.8" fill="#0B0B0B" fill-opacity="0.07"/><polygon points="1.4,11.9 2.4,12.8 2.4,18.2 1.4,19.1 0.3999999999999999,18.2 0.3999999999999999,12.8" fill="#0B0B0B"/><polygon points="10.6,11.9 11.6,12.8 11.6,18.2 10.6,19.1 9.6,18.2 9.6,12.8" fill="#0B0B0B"/></g><g transform="translate(535.8 114.0) scale(2.364) skewX(-7)"><polygon points="2.3,1 9.7,1 10.6,2 9.7,3 2.3,3 1.4,2" fill="#0B0B0B"/><polygon points="2.3,10 9.7,10 10.6,11 9.7,12 2.3,12 1.4,11" fill="#0B0B0B"/><polygon points="2.3,19 9.7,19 10.6,20 9.7,21 2.3,21 1.4,20" fill="#0B0B0B"/><polygon points="1.4,2.9 2.4,3.8 2.4,9.2 1.4,10.1 0.3999999999999999,9.2 0.3999999999999999,3.8" fill="#0B0B0B" fill-opacity="0.07"/><polygon points="10.6,2.9 11.6,3.8 11.6,9.2 10.6,10.1 9.6,9.2 9.6,3.8" fill="#0B0B0B"/><polygon points="1.4,11.9 2.4,12.8 2.4,18.2 1.4,19.1 0.3999999999999999,18.2 0.3999999999999999,12.8" fill="#0B0B0B"/><polygon points="10.6,11.9 11.6,12.8 11.6,18.2 10.6,19.1 9.6,18.2 9.6,12.8" fill="#0B0B0B" fill-opacity="0.07"/></g><g transform="translate(572.1 114.0) scale(2.364) skewX(-7)"><polygon points="2.3,1 9.7,1 10.6,2 9.7,3 2.3,3 1.4,2" fill="#0B0B0B"/><polygon points="2.3,10 9.7,10 10.6,11 9.7,12 2.3,12 1.4,11" fill="#0B0B0B"/><polygon points="2.3,19 9.7,19 10.6,20 9.7,21 2.3,21 1.4,20" fill="#0B0B0B"/><polygon points="1.4,2.9 2.4,3.8 2.4,9.2 1.4,10.1 0.3999999999999999,9.2 0.3999999999999999,3.8" fill="#0B0B0B" fill-opacity="0.07"/><polygon points="10.6,2.9 11.6,3.8 11.6,9.2 10.6,10.1 9.6,9.2 9.6,3.8" fill="#0B0B0B"/><polygon points="1.4,11.9 2.4,12.8 2.4,18.2 1.4,19.1 0.3999999999999999,18.2 0.3999999999999999,12.8" fill="#0B0B0B" fill-opacity="0.07"/><polygon points="10.6,11.9 11.6,12.8 11.6,18.2 10.6,19.1 9.6,18.2 9.6,12.8" fill="#0B0B0B"/></g><rect x="611.3" y="128.2" width="4.7" height="4.7" fill="#0B0B0B"/><rect x="609.6" y="147.1" width="4.7" height="4.7" fill="#0B0B0B"/><g transform="translate(619.1 114.0) scale(2.364) skewX(-7)"><polygon points="2.3,1 9.7,1 10.6,2 9.7,3 2.3,3 1.4,2" fill="#0B0B0B"/><polygon points="2.3,10 9.7,10 10.6,11 9.7,12 2.3,12 1.4,11" fill="#0B0B0B"/><polygon points="2.3,19 9.7,19 10.6,20 9.7,21 2.3,21 1.4,20" fill="#0B0B0B"/><polygon points="1.4,2.9 2.4,3.8 2.4,9.2 1.4,10.1 0.3999999999999999,9.2 0.3999999999999999,3.8" fill="#0B0B0B"/><polygon points="10.6,2.9 11.6,3.8 11.6,9.2 10.6,10.1 9.6,9.2 9.6,3.8" fill="#0B0B0B" fill-opacity="0.07"/><polygon points="1.4,11.9 2.4,12.8 2.4,18.2 1.4,19.1 0.3999999999999999,18.2 0.3999999999999999,12.8" fill="#0B0B0B" fill-opacity="0.07"/><polygon points="10.6,11.9 11.6,12.8 11.6,18.2 10.6,19.1 9.6,18.2 9.6,12.8" fill="#0B0B0B"/></g><g transform="translate(655.4 114.0) scale(2.364) skewX(-7)"><polygon points="2.3,1 9.7,1 10.6,2 9.7,3 2.3,3 1.4,2" fill="#0B0B0B"/><polygon points="2.3,10 9.7,10 10.6,11 9.7,12 2.3,12 1.4,11" fill="#0B0B0B"/><polygon points="2.3,19 9.7,19 10.6,20 9.7,21 2.3,21 1.4,20" fill="#0B0B0B"/><polygon points="1.4,2.9 2.4,3.8 2.4,9.2 1.4,10.1 0.3999999999999999,9.2 0.3999999999999999,3.8" fill="#0B0B0B"/><polygon points="10.6,2.9 11.6,3.8 11.6,9.2 10.6,10.1 9.6,9.2 9.6,3.8" fill="#0B0B0B"/><polygon points="1.4,11.9 2.4,12.8 2.4,18.2 1.4,19.1 0.3999999999999999,18.2 0.3999999999999999,12.8" fill="#0B0B0B" fill-opacity="0.07"/><polygon points="10.6,11.9 11.6,12.8 11.6,18.2 10.6,19.1 9.6,18.2 9.6,12.8" fill="#0B0B0B"/></g><path fill="#5C5A55"  d="M1025.3 136.9H1028Q1029.7 136.9 1030.6 138.1Q1031.4 139.2 1031.4 141.5Q1031.4 143.7 1030.6 144.8Q1029.7 146 1028 146H1025.3ZM1027.9 144.8Q1028.9 144.8 1029.4 144.1Q1029.9 143.5 1029.9 142.2V140.7Q1029.9 139.5 1029.4 138.8Q1028.9 138.1 1027.9 138.1H1026.7V144.8ZM1035.7 146V136.9H1041.4V138.1H1037.2V140.8H1041.2V142H1037.2V144.8H1041.4V146ZM1048.8 146.2Q1047.6 146.2 1046.8 145.7Q1046 145.3 1045.5 144.6L1046.4 143.7Q1047 144.4 1047.5 144.7Q1048.1 144.9 1048.9 144.9Q1049.7 144.9 1050.2 144.6Q1050.7 144.2 1050.7 143.4Q1050.7 142.9 1050.3 142.5Q1050 142.2 1049.2 142.1L1048.2 141.9Q1047.5 141.8 1047.1 141.6Q1046.6 141.3 1046.4 141Q1046.1 140.7 1046 140.3Q1045.8 139.9 1045.8 139.4Q1045.8 138.1 1046.7 137.4Q1047.5 136.8 1049 136.8Q1050 136.8 1050.8 137.1Q1051.6 137.5 1052 138.1L1051.1 139Q1050.7 138.5 1050.2 138.3Q1049.7 138 1049 138Q1048.2 138 1047.7 138.3Q1047.3 138.7 1047.3 139.3Q1047.3 139.9 1047.6 140.2Q1048 140.5 1048.8 140.7L1049.8 140.8Q1051 141.1 1051.6 141.7Q1052.1 142.4 1052.1 143.4Q1052.1 144 1051.9 144.5Q1051.7 145 1051.3 145.4Q1050.9 145.8 1050.2 146Q1049.6 146.2 1048.8 146.2ZM1060 138.1V146H1058.6V138.1H1055.7V136.9H1062.9V138.1ZM1066.8 146V144.9H1069V138H1066.8V136.9H1072.6V138H1070.4V144.9H1072.6V146ZM1078.5 139H1078.4V146H1077.1V136.9H1079L1081.7 143.9H1081.8V136.9H1083.1V146H1081.2ZM1092.6 146 1091.9 143.6H1089L1088.3 146H1086.9L1089.5 136.9H1091.5L1094.2 146ZM1090.5 138.4H1090.4L1089.3 142.4H1091.6ZM1101.6 138.1V146H1100.2V138.1H1097.3V136.9H1104.5V138.1ZM1108.4 146V144.9H1110.6V138H1108.4V136.9H1114.2V138H1112V144.9H1114.2V146ZM1121.7 146.2Q1120.8 146.2 1120.2 145.8Q1119.6 145.5 1119.2 144.9Q1118.8 144.3 1118.6 143.5Q1118.4 142.6 1118.4 141.5Q1118.4 140.4 1118.6 139.5Q1118.8 138.6 1119.2 138Q1119.6 137.4 1120.2 137.1Q1120.8 136.8 1121.7 136.8Q1122.6 136.8 1123.2 137.1Q1123.8 137.4 1124.2 138Q1124.6 138.6 1124.8 139.5Q1125 140.4 1125 141.5Q1125 142.6 1124.8 143.5Q1124.6 144.3 1124.2 144.9Q1123.8 145.5 1123.2 145.8Q1122.6 146.2 1121.7 146.2ZM1121.7 144.9Q1122.7 144.9 1123.1 144.2Q1123.5 143.5 1123.5 142.2V140.7Q1123.5 139.4 1123.1 138.7Q1122.7 138 1121.7 138Q1120.7 138 1120.3 138.7Q1119.9 139.4 1119.9 140.7V142.2Q1119.9 143.5 1120.3 144.2Q1120.7 144.9 1121.7 144.9ZM1130.5 139H1130.4V146H1129.1V136.9H1131L1133.7 143.9H1133.8V136.9H1135.1V146H1133.2ZM1153.6 138.1V146H1152.2V138.1H1149.3V136.9H1156.5V138.1ZM1160.4 146V144.9H1162.6V138H1160.4V136.9H1166.2V138H1164V144.9H1166.2V146ZM1175.6 141.7 1175.6 138.9H1175.5L1173.7 143.6L1171.9 138.9H1171.8L1171.8 141.7V146H1170.5V136.9H1172.3L1173.7 140.5H1173.8L1175.2 136.9H1176.9V146H1175.6ZM1181.3 146V136.9H1187V138.1H1182.8V140.8H1186.8V142H1182.8V144.8H1187V146Z"/><rect x="64" y="200" width="1152" height="88" fill="none" stroke="#CFCBC1"/><path fill="#FF4A1C"  d="M105.2 262.5Q102.3 262.5 100.2 261.5Q98 260.4 96.6 258.3Q95.3 256.3 94.6 253.4Q93.9 250.4 93.9 246.6Q93.9 242.9 94.6 239.9Q95.3 237 96.6 234.9Q98 232.9 100.2 231.8Q102.3 230.8 105.2 230.8Q108.1 230.8 110.2 231.8Q112.4 232.9 113.8 234.9Q115.1 237 115.8 239.9Q116.5 242.9 116.5 246.6Q116.5 250.4 115.8 253.4Q115.1 256.3 113.8 258.3Q112.4 260.4 110.2 261.5Q108.1 262.5 105.2 262.5ZM105.2 258.4Q108.5 258.4 109.9 255.9Q111.2 253.5 111.2 249.2V244Q111.2 239.8 109.9 237.3Q108.5 234.9 105.2 234.9Q101.9 234.9 100.5 237.3Q99.2 239.8 99.2 244V249.2Q99.2 253.5 100.5 255.9Q101.9 258.4 105.2 258.4ZM134.5 262.5Q128.6 262.5 125.8 258.4Q123 254.3 123 246.6Q123 239 125.8 234.9Q128.6 230.8 134.5 230.8Q136.7 230.8 138.4 231.4Q140 231.9 141.2 233Q142.4 234 143.2 235.4Q144 236.8 144.6 238.4L140.1 239.9Q139.8 238.8 139.3 237.9Q138.9 237 138.2 236.3Q137.6 235.6 136.7 235.2Q135.8 234.9 134.4 234.9Q131.2 234.9 129.7 237.3Q128.2 239.8 128.2 244V249.2Q128.2 253.5 129.7 255.9Q131.2 258.4 134.4 258.4Q135.8 258.4 136.7 258Q137.6 257.6 138.2 257Q138.9 256.3 139.3 255.4Q139.8 254.5 140.1 253.4L144.6 254.9Q144 256.5 143.2 257.9Q142.4 259.3 141.2 260.3Q140 261.3 138.4 261.9Q136.7 262.5 134.5 262.5ZM164.5 235.4V262H159.5V235.4H149.9V231.3H174.1V235.4Z"/><g transform="translate(230.0 218.0) scale(2.364) skewX(-7)"><polygon points="2.3,1 9.7,1 10.6,2 9.7,3 2.3,3 1.4,2" fill="#FF4A1C"/><polygon points="2.3,10 9.7,10 10.6,11 9.7,12 2.3,12 1.4,11" fill="#0B0B0B" fill-opacity="0.07"/><polygon points="2.3,19 9.7,19 10.6,20 9.7,21 2.3,21 1.4,20" fill="#FF4A1C"/><polygon points="1.4,2.9 2.4,3.8 2.4,9.2 1.4,10.1 0.3999999999999999,9.2 0.3999999999999999,3.8" fill="#FF4A1C"/><polygon points="10.6,2.9 11.6,3.8 11.6,9.2 10.6,10.1 9.6,9.2 9.6,3.8" fill="#FF4A1C"/><polygon points="1.4,11.9 2.4,12.8 2.4,18.2 1.4,19.1 0.3999999999999999,18.2 0.3999999999999999,12.8" fill="#FF4A1C"/><polygon points="10.6,11.9 11.6,12.8 11.6,18.2 10.6,19.1 9.6,18.2 9.6,12.8" fill="#FF4A1C"/></g><g transform="translate(266.3 218.0) scale(2.364) skewX(-7)"><polygon points="2.3,1 9.7,1 10.6,2 9.7,3 2.3,3 1.4,2" fill="#FF4A1C"/><polygon points="2.3,10 9.7,10 10.6,11 9.7,12 2.3,12 1.4,11" fill="#FF4A1C"/><polygon points="2.3,19 9.7,19 10.6,20 9.7,21 2.3,21 1.4,20" fill="#FF4A1C"/><polygon points="1.4,2.9 2.4,3.8 2.4,9.2 1.4,10.1 0.3999999999999999,9.2 0.3999999999999999,3.8" fill="#FF4A1C"/><polygon points="10.6,2.9 11.6,3.8 11.6,9.2 10.6,10.1 9.6,9.2 9.6,3.8" fill="#0B0B0B" fill-opacity="0.07"/><polygon points="1.4,11.9 2.4,12.8 2.4,18.2 1.4,19.1 0.3999999999999999,18.2 0.3999999999999999,12.8" fill="#0B0B0B" fill-opacity="0.07"/><polygon points="10.6,11.9 11.6,12.8 11.6,18.2 10.6,19.1 9.6,18.2 9.6,12.8" fill="#FF4A1C"/></g><g transform="translate(346.6 218.0) scale(2.364) skewX(-7)"><polygon points="2.3,1 9.7,1 10.6,2 9.7,3 2.3,3 1.4,2" fill="#FF4A1C"/><polygon points="2.3,10 9.7,10 10.6,11 9.7,12 2.3,12 1.4,11" fill="#FF4A1C"/><polygon points="2.3,19 9.7,19 10.6,20 9.7,21 2.3,21 1.4,20" fill="#FF4A1C"/><polygon points="1.4,2.9 2.4,3.8 2.4,9.2 1.4,10.1 0.3999999999999999,9.2 0.3999999999999999,3.8" fill="#0B0B0B" fill-opacity="0.07"/><polygon points="10.6,2.9 11.6,3.8 11.6,9.2 10.6,10.1 9.6,9.2 9.6,3.8" fill="#FF4A1C"/><polygon points="1.4,11.9 2.4,12.8 2.4,18.2 1.4,19.1 0.3999999999999999,18.2 0.3999999999999999,12.8" fill="#FF4A1C"/><polygon points="10.6,11.9 11.6,12.8 11.6,18.2 10.6,19.1 9.6,18.2 9.6,12.8" fill="#0B0B0B" fill-opacity="0.07"/></g><g transform="translate(382.9 218.0) scale(2.364) skewX(-7)"><polygon points="2.3,1 9.7,1 10.6,2 9.7,3 2.3,3 1.4,2" fill="#FF4A1C"/><polygon points="2.3,10 9.7,10 10.6,11 9.7,12 2.3,12 1.4,11" fill="#0B0B0B" fill-opacity="0.07"/><polygon points="2.3,19 9.7,19 10.6,20 9.7,21 2.3,21 1.4,20" fill="#FF4A1C"/><polygon points="1.4,2.9 2.4,3.8 2.4,9.2 1.4,10.1 0.3999999999999999,9.2 0.3999999999999999,3.8" fill="#FF4A1C"/><polygon points="10.6,2.9 11.6,3.8 11.6,9.2 10.6,10.1 9.6,9.2 9.6,3.8" fill="#FF4A1C"/><polygon points="1.4,11.9 2.4,12.8 2.4,18.2 1.4,19.1 0.3999999999999999,18.2 0.3999999999999999,12.8" fill="#FF4A1C"/><polygon points="10.6,11.9 11.6,12.8 11.6,18.2 10.6,19.1 9.6,18.2 9.6,12.8" fill="#FF4A1C"/></g><g transform="translate(419.2 218.0) scale(2.364) skewX(-7)"><polygon points="2.3,1 9.7,1 10.6,2 9.7,3 2.3,3 1.4,2" fill="#FF4A1C"/><polygon points="2.3,10 9.7,10 10.6,11 9.7,12 2.3,12 1.4,11" fill="#FF4A1C"/><polygon points="2.3,19 9.7,19 10.6,20 9.7,21 2.3,21 1.4,20" fill="#FF4A1C"/><polygon points="1.4,2.9 2.4,3.8 2.4,9.2 1.4,10.1 0.3999999999999999,9.2 0.3999999999999999,3.8" fill="#0B0B0B" fill-opacity="0.07"/><polygon points="10.6,2.9 11.6,3.8 11.6,9.2 10.6,10.1 9.6,9.2 9.6,3.8" fill="#FF4A1C"/><polygon points="1.4,11.9 2.4,12.8 2.4,18.2 1.4,19.1 0.3999999999999999,18.2 0.3999999999999999,12.8" fill="#FF4A1C"/><polygon points="10.6,11.9 11.6,12.8 11.6,18.2 10.6,19.1 9.6,18.2 9.6,12.8" fill="#0B0B0B" fill-opacity="0.07"/></g><g transform="translate(455.5 218.0) scale(2.364) skewX(-7)"><polygon points="2.3,1 9.7,1 10.6,2 9.7,3 2.3,3 1.4,2" fill="#FF4A1C"/><polygon points="2.3,10 9.7,10 10.6,11 9.7,12 2.3,12 1.4,11" fill="#FF4A1C"/><polygon points="2.3,19 9.7,19 10.6,20 9.7,21 2.3,21 1.4,20" fill="#FF4A1C"/><polygon points="1.4,2.9 2.4,3.8 2.4,9.2 1.4,10.1 0.3999999999999999,9.2 0.3999999999999999,3.8" fill="#FF4A1C"/><polygon points="10.6,2.9 11.6,3.8 11.6,9.2 10.6,10.1 9.6,9.2 9.6,3.8" fill="#0B0B0B" fill-opacity="0.07"/><polygon points="1.4,11.9 2.4,12.8 2.4,18.2 1.4,19.1 0.3999999999999999,18.2 0.3999999999999999,12.8" fill="#FF4A1C"/><polygon points="10.6,11.9 11.6,12.8 11.6,18.2 10.6,19.1 9.6,18.2 9.6,12.8" fill="#FF4A1C"/></g><g transform="translate(535.8 218.0) scale(2.364) skewX(-7)"><polygon points="2.3,1 9.7,1 10.6,2 9.7,3 2.3,3 1.4,2" fill="#0B0B0B" fill-opacity="0.07"/><polygon points="2.3,10 9.7,10 10.6,11 9.7,12 2.3,12 1.4,11" fill="#0B0B0B" fill-opacity="0.07"/><polygon points="2.3,19 9.7,19 10.6,20 9.7,21 2.3,21 1.4,20" fill="#0B0B0B" fill-opacity="0.07"/><polygon points="1.4,2.9 2.4,3.8 2.4,9.2 1.4,10.1 0.3999999999999999,9.2 0.3999999999999999,3.8" fill="#0B0B0B" fill-opacity="0.07"/><polygon points="10.6,2.9 11.6,3.8 11.6,9.2 10.6,10.1 9.6,9.2 9.6,3.8" fill="#FF4A1C"/><polygon points="1.4,11.9 2.4,12.8 2.4,18.2 1.4,19.1 0.3999999999999999,18.2 0.3999999999999999,12.8" fill="#0B0B0B" fill-opacity="0.07"/><polygon points="10.6,11.9 11.6,12.8 11.6,18.2 10.6,19.1 9.6,18.2 9.6,12.8" fill="#FF4A1C"/></g><g transform="translate(572.1 218.0) scale(2.364) skewX(-7)"><polygon points="2.3,1 9.7,1 10.6,2 9.7,3 2.3,3 1.4,2" fill="#FF4A1C"/><polygon points="2.3,10 9.7,10 10.6,11 9.7,12 2.3,12 1.4,11" fill="#FF4A1C"/><polygon points="2.3,19 9.7,19 10.6,20 9.7,21 2.3,21 1.4,20" fill="#FF4A1C"/><polygon points="1.4,2.9 2.4,3.8 2.4,9.2 1.4,10.1 0.3999999999999999,9.2 0.3999999999999999,3.8" fill="#0B0B0B" fill-opacity="0.07"/><polygon points="10.6,2.9 11.6,3.8 11.6,9.2 10.6,10.1 9.6,9.2 9.6,3.8" fill="#FF4A1C"/><polygon points="1.4,11.9 2.4,12.8 2.4,18.2 1.4,19.1 0.3999999999999999,18.2 0.3999999999999999,12.8" fill="#0B0B0B" fill-opacity="0.07"/><polygon points="10.6,11.9 11.6,12.8 11.6,18.2 10.6,19.1 9.6,18.2 9.6,12.8" fill="#FF4A1C"/></g><rect x="611.3" y="232.2" width="4.7" height="4.7" fill="#FF4A1C"/><rect x="609.6" y="251.1" width="4.7" height="4.7" fill="#FF4A1C"/><g transform="translate(619.1 218.0) scale(2.364) skewX(-7)"><polygon points="2.3,1 9.7,1 10.6,2 9.7,3 2.3,3 1.4,2" fill="#FF4A1C"/><polygon points="2.3,10 9.7,10 10.6,11 9.7,12 2.3,12 1.4,11" fill="#FF4A1C"/><polygon points="2.3,19 9.7,19 10.6,20 9.7,21 2.3,21 1.4,20" fill="#FF4A1C"/><polygon points="1.4,2.9 2.4,3.8 2.4,9.2 1.4,10.1 0.3999999999999999,9.2 0.3999999999999999,3.8" fill="#0B0B0B" fill-opacity="0.07"/><polygon points="10.6,2.9 11.6,3.8 11.6,9.2 10.6,10.1 9.6,9.2 9.6,3.8" fill="#FF4A1C"/><polygon points="1.4,11.9 2.4,12.8 2.4,18.2 1.4,19.1 0.3999999999999999,18.2 0.3999999999999999,12.8" fill="#0B0B0B" fill-opacity="0.07"/><polygon points="10.6,11.9 11.6,12.8 11.6,18.2 10.6,19.1 9.6,18.2 9.6,12.8" fill="#FF4A1C"/></g><g transform="translate(655.4 218.0) scale(2.364) skewX(-7)"><polygon points="2.3,1 9.7,1 10.6,2 9.7,3 2.3,3 1.4,2" fill="#0B0B0B" fill-opacity="0.07"/><polygon points="2.3,10 9.7,10 10.6,11 9.7,12 2.3,12 1.4,11" fill="#FF4A1C"/><polygon points="2.3,19 9.7,19 10.6,20 9.7,21 2.3,21 1.4,20" fill="#0B0B0B" fill-opacity="0.07"/><polygon points="1.4,2.9 2.4,3.8 2.4,9.2 1.4,10.1 0.3999999999999999,9.2 0.3999999999999999,3.8" fill="#FF4A1C"/><polygon points="10.6,2.9 11.6,3.8 11.6,9.2 10.6,10.1 9.6,9.2 9.6,3.8" fill="#FF4A1C"/><polygon points="1.4,11.9 2.4,12.8 2.4,18.2 1.4,19.1 0.3999999999999999,18.2 0.3999999999999999,12.8" fill="#0B0B0B" fill-opacity="0.07"/><polygon points="10.6,11.9 11.6,12.8 11.6,18.2 10.6,19.1 9.6,18.2 9.6,12.8" fill="#FF4A1C"/></g><path fill="#5C5A55"  d="M1066.9 250V240.9H1070.3Q1071.6 240.9 1072.3 241.7Q1073 242.4 1073 243.7Q1073 244.9 1072.3 245.7Q1071.6 246.4 1070.3 246.4H1068.3V250ZM1068.3 245.2H1070.1Q1071.4 245.2 1071.4 243.9V243.4Q1071.4 242.1 1070.1 242.1H1068.3ZM1078.7 250H1077.3V240.9H1080.7Q1082 240.9 1082.7 241.7Q1083.4 242.4 1083.4 243.7Q1083.4 244.7 1082.8 245.4Q1082.3 246 1081.4 246.2L1083.5 250H1081.9L1079.9 246.3H1078.7ZM1080.5 245.2Q1081.8 245.2 1081.8 243.9V243.4Q1081.8 242.1 1080.5 242.1H1078.7V245.2ZM1087.7 250V240.9H1093.4V242.1H1089.2V244.8H1093.2V246H1089.2V248.8H1093.4V250ZM1100.8 250.2Q1099.6 250.2 1098.8 249.7Q1098 249.3 1097.5 248.6L1098.4 247.7Q1099 248.4 1099.5 248.7Q1100.1 248.9 1100.9 248.9Q1101.7 248.9 1102.2 248.6Q1102.7 248.2 1102.7 247.4Q1102.7 246.9 1102.3 246.5Q1102 246.2 1101.2 246.1L1100.2 245.9Q1099.5 245.8 1099.1 245.6Q1098.6 245.3 1098.4 245Q1098.1 244.7 1098 244.3Q1097.8 243.9 1097.8 243.4Q1097.8 242.1 1098.7 241.4Q1099.5 240.8 1101 240.8Q1102 240.8 1102.8 241.1Q1103.6 241.5 1104 242.1L1103.1 243Q1102.7 242.5 1102.2 242.3Q1101.7 242 1101 242Q1100.2 242 1099.7 242.3Q1099.3 242.7 1099.3 243.3Q1099.3 243.9 1099.6 244.2Q1100 244.5 1100.8 244.7L1101.8 244.8Q1103 245.1 1103.6 245.7Q1104.1 246.4 1104.1 247.4Q1104.1 248 1103.9 248.5Q1103.7 249 1103.3 249.4Q1102.9 249.8 1102.2 250Q1101.6 250.2 1100.8 250.2ZM1108.5 250V240.9H1114.2V242.1H1110V244.8H1114V246H1110V248.8H1114.2V250ZM1120.1 243H1120V250H1118.7V240.9H1120.6L1123.3 247.9H1123.4V240.9H1124.7V250H1122.8ZM1132.8 242.1V250H1131.4V242.1H1128.5V240.9H1135.7V242.1ZM1153.6 242.1V250H1152.2V242.1H1149.3V240.9H1156.5V242.1ZM1160.4 250V248.9H1162.6V242H1160.4V240.9H1166.2V242H1164V248.9H1166.2V250ZM1175.6 245.7 1175.6 242.9H1175.5L1173.7 247.6L1171.9 242.9H1171.8L1171.8 245.7V250H1170.5V240.9H1172.3L1173.7 244.5H1173.8L1175.2 240.9H1176.9V250H1175.6ZM1181.3 250V240.9H1187V242.1H1182.8V244.8H1186.8V246H1182.8V248.8H1187V250Z"/><rect x="64" y="304" width="1152" height="88" fill="none" stroke="#CFCBC1"/><path fill="#0B0B0B"  d="M105.2 366.5Q102.3 366.5 100.2 365.5Q98 364.4 96.6 362.3Q95.3 360.3 94.6 357.4Q93.9 354.4 93.9 350.6Q93.9 346.9 94.6 343.9Q95.3 341 96.6 338.9Q98 336.9 100.2 335.8Q102.3 334.8 105.2 334.8Q108.1 334.8 110.2 335.8Q112.4 336.9 113.8 338.9Q115.1 341 115.8 343.9Q116.5 346.9 116.5 350.6Q116.5 354.4 115.8 357.4Q115.1 360.3 113.8 362.3Q112.4 364.4 110.2 365.5Q108.1 366.5 105.2 366.5ZM105.2 362.4Q108.5 362.4 109.9 359.9Q111.2 357.5 111.2 353.2V348Q111.2 343.8 109.9 341.3Q108.5 338.9 105.2 338.9Q101.9 338.9 100.5 341.3Q99.2 343.8 99.2 348V353.2Q99.2 357.5 100.5 359.9Q101.9 362.4 105.2 362.4ZM134.5 366.5Q128.6 366.5 125.8 362.4Q123 358.3 123 350.6Q123 343 125.8 338.9Q128.6 334.8 134.5 334.8Q136.7 334.8 138.4 335.4Q140 335.9 141.2 337Q142.4 338 143.2 339.4Q144 340.8 144.6 342.4L140.1 343.9Q139.8 342.8 139.3 341.9Q138.9 341 138.2 340.3Q137.6 339.6 136.7 339.2Q135.8 338.9 134.4 338.9Q131.2 338.9 129.7 341.3Q128.2 343.8 128.2 348V353.2Q128.2 357.5 129.7 359.9Q131.2 362.4 134.4 362.4Q135.8 362.4 136.7 362Q137.6 361.6 138.2 361Q138.9 360.3 139.3 359.4Q139.8 358.5 140.1 357.4L144.6 358.9Q144 360.5 143.2 361.9Q142.4 363.3 141.2 364.3Q140 365.3 138.4 365.9Q136.7 366.5 134.5 366.5ZM164.5 339.4V366H159.5V339.4H149.9V335.3H174.1V339.4Z"/><g transform="translate(230.0 322.0) scale(2.364) skewX(-7)"><polygon points="2.3,1 9.7,1 10.6,2 9.7,3 2.3,3 1.4,2" fill="#0B0B0B"/><polygon points="2.3,10 9.7,10 10.6,11 9.7,12 2.3,12 1.4,11" fill="#0B0B0B" fill-opacity="0.07"/><polygon points="2.3,19 9.7,19 10.6,20 9.7,21 2.3,21 1.4,20" fill="#0B0B0B"/><polygon points="1.4,2.9 2.4,3.8 2.4,9.2 1.4,10.1 0.3999999999999999,9.2 0.3999999999999999,3.8" fill="#0B0B0B"/><polygon points="10.6,2.9 11.6,3.8 11.6,9.2 10.6,10.1 9.6,9.2 9.6,3.8" fill="#0B0B0B"/><polygon points="1.4,11.9 2.4,12.8 2.4,18.2 1.4,19.1 0.3999999999999999,18.2 0.3999999999999999,12.8" fill="#0B0B0B"/><polygon points="10.6,11.9 11.6,12.8 11.6,18.2 10.6,19.1 9.6,18.2 9.6,12.8" fill="#0B0B0B"/></g><g transform="translate(266.3 322.0) scale(2.364) skewX(-7)"><polygon points="2.3,1 9.7,1 10.6,2 9.7,3 2.3,3 1.4,2" fill="#0B0B0B"/><polygon points="2.3,10 9.7,10 10.6,11 9.7,12 2.3,12 1.4,11" fill="#0B0B0B"/><polygon points="2.3,19 9.7,19 10.6,20 9.7,21 2.3,21 1.4,20" fill="#0B0B0B"/><polygon points="1.4,2.9 2.4,3.8 2.4,9.2 1.4,10.1 0.3999999999999999,9.2 0.3999999999999999,3.8" fill="#0B0B0B"/><polygon points="10.6,2.9 11.6,3.8 11.6,9.2 10.6,10.1 9.6,9.2 9.6,3.8" fill="#0B0B0B" fill-opacity="0.07"/><polygon points="1.4,11.9 2.4,12.8 2.4,18.2 1.4,19.1 0.3999999999999999,18.2 0.3999999999999999,12.8" fill="#0B0B0B" fill-opacity="0.07"/><polygon points="10.6,11.9 11.6,12.8 11.6,18.2 10.6,19.1 9.6,18.2 9.6,12.8" fill="#0B0B0B"/></g><g transform="translate(346.6 322.0) scale(2.364) skewX(-7)"><polygon points="2.3,1 9.7,1 10.6,2 9.7,3 2.3,3 1.4,2" fill="#0B0B0B"/><polygon points="2.3,10 9.7,10 10.6,11 9.7,12 2.3,12 1.4,11" fill="#0B0B0B"/><polygon points="2.3,19 9.7,19 10.6,20 9.7,21 2.3,21 1.4,20" fill="#0B0B0B"/><polygon points="1.4,2.9 2.4,3.8 2.4,9.2 1.4,10.1 0.3999999999999999,9.2 0.3999999999999999,3.8" fill="#0B0B0B" fill-opacity="0.07"/><polygon points="10.6,2.9 11.6,3.8 11.6,9.2 10.6,10.1 9.6,9.2 9.6,3.8" fill="#0B0B0B"/><polygon points="1.4,11.9 2.4,12.8 2.4,18.2 1.4,19.1 0.3999999999999999,18.2 0.3999999999999999,12.8" fill="#0B0B0B"/><polygon points="10.6,11.9 11.6,12.8 11.6,18.2 10.6,19.1 9.6,18.2 9.6,12.8" fill="#0B0B0B" fill-opacity="0.07"/></g><g transform="translate(382.9 322.0) scale(2.364) skewX(-7)"><polygon points="2.3,1 9.7,1 10.6,2 9.7,3 2.3,3 1.4,2" fill="#0B0B0B"/><polygon points="2.3,10 9.7,10 10.6,11 9.7,12 2.3,12 1.4,11" fill="#0B0B0B" fill-opacity="0.07"/><polygon points="2.3,19 9.7,19 10.6,20 9.7,21 2.3,21 1.4,20" fill="#0B0B0B"/><polygon points="1.4,2.9 2.4,3.8 2.4,9.2 1.4,10.1 0.3999999999999999,9.2 0.3999999999999999,3.8" fill="#0B0B0B"/><polygon points="10.6,2.9 11.6,3.8 11.6,9.2 10.6,10.1 9.6,9.2 9.6,3.8" fill="#0B0B0B"/><polygon points="1.4,11.9 2.4,12.8 2.4,18.2 1.4,19.1 0.3999999999999999,18.2 0.3999999999999999,12.8" fill="#0B0B0B"/><polygon points="10.6,11.9 11.6,12.8 11.6,18.2 10.6,19.1 9.6,18.2 9.6,12.8" fill="#0B0B0B"/></g><g transform="translate(419.2 322.0) scale(2.364) skewX(-7)"><polygon points="2.3,1 9.7,1 10.6,2 9.7,3 2.3,3 1.4,2" fill="#0B0B0B"/><polygon points="2.3,10 9.7,10 10.6,11 9.7,12 2.3,12 1.4,11" fill="#0B0B0B"/><polygon points="2.3,19 9.7,19 10.6,20 9.7,21 2.3,21 1.4,20" fill="#0B0B0B"/><polygon points="1.4,2.9 2.4,3.8 2.4,9.2 1.4,10.1 0.3999999999999999,9.2 0.3999999999999999,3.8" fill="#0B0B0B" fill-opacity="0.07"/><polygon points="10.6,2.9 11.6,3.8 11.6,9.2 10.6,10.1 9.6,9.2 9.6,3.8" fill="#0B0B0B"/><polygon points="1.4,11.9 2.4,12.8 2.4,18.2 1.4,19.1 0.3999999999999999,18.2 0.3999999999999999,12.8" fill="#0B0B0B"/><polygon points="10.6,11.9 11.6,12.8 11.6,18.2 10.6,19.1 9.6,18.2 9.6,12.8" fill="#0B0B0B" fill-opacity="0.07"/></g><g transform="translate(455.5 322.0) scale(2.364) skewX(-7)"><polygon points="2.3,1 9.7,1 10.6,2 9.7,3 2.3,3 1.4,2" fill="#0B0B0B"/><polygon points="2.3,10 9.7,10 10.6,11 9.7,12 2.3,12 1.4,11" fill="#0B0B0B"/><polygon points="2.3,19 9.7,19 10.6,20 9.7,21 2.3,21 1.4,20" fill="#0B0B0B"/><polygon points="1.4,2.9 2.4,3.8 2.4,9.2 1.4,10.1 0.3999999999999999,9.2 0.3999999999999999,3.8" fill="#0B0B0B"/><polygon points="10.6,2.9 11.6,3.8 11.6,9.2 10.6,10.1 9.6,9.2 9.6,3.8" fill="#0B0B0B" fill-opacity="0.07"/><polygon points="1.4,11.9 2.4,12.8 2.4,18.2 1.4,19.1 0.3999999999999999,18.2 0.3999999999999999,12.8" fill="#0B0B0B"/><polygon points="10.6,11.9 11.6,12.8 11.6,18.2 10.6,19.1 9.6,18.2 9.6,12.8" fill="#0B0B0B"/></g><g transform="translate(535.8 322.0) scale(2.364) skewX(-7)"><polygon points="2.3,1 9.7,1 10.6,2 9.7,3 2.3,3 1.4,2" fill="#0B0B0B" fill-opacity="0.07"/><polygon points="2.3,10 9.7,10 10.6,11 9.7,12 2.3,12 1.4,11" fill="#0B0B0B" fill-opacity="0.07"/><polygon points="2.3,19 9.7,19 10.6,20 9.7,21 2.3,21 1.4,20" fill="#0B0B0B" fill-opacity="0.07"/><polygon points="1.4,2.9 2.4,3.8 2.4,9.2 1.4,10.1 0.3999999999999999,9.2 0.3999999999999999,3.8" fill="#0B0B0B" fill-opacity="0.07"/><polygon points="10.6,2.9 11.6,3.8 11.6,9.2 10.6,10.1 9.6,9.2 9.6,3.8" fill="#0B0B0B" fill-opacity="0.07"/><polygon points="1.4,11.9 2.4,12.8 2.4,18.2 1.4,19.1 0.3999999999999999,18.2 0.3999999999999999,12.8" fill="#0B0B0B" fill-opacity="0.07"/><polygon points="10.6,11.9 11.6,12.8 11.6,18.2 10.6,19.1 9.6,18.2 9.6,12.8" fill="#0B0B0B" fill-opacity="0.07"/></g><g transform="translate(572.1 322.0) scale(2.364) skewX(-7)"><polygon points="2.3,1 9.7,1 10.6,2 9.7,3 2.3,3 1.4,2" fill="#0B0B0B" fill-opacity="0.07"/><polygon points="2.3,10 9.7,10 10.6,11 9.7,12 2.3,12 1.4,11" fill="#0B0B0B" fill-opacity="0.07"/><polygon points="2.3,19 9.7,19 10.6,20 9.7,21 2.3,21 1.4,20" fill="#0B0B0B" fill-opacity="0.07"/><polygon points="1.4,2.9 2.4,3.8 2.4,9.2 1.4,10.1 0.3999999999999999,9.2 0.3999999999999999,3.8" fill="#0B0B0B" fill-opacity="0.07"/><polygon points="10.6,2.9 11.6,3.8 11.6,9.2 10.6,10.1 9.6,9.2 9.6,3.8" fill="#0B0B0B" fill-opacity="0.07"/><polygon points="1.4,11.9 2.4,12.8 2.4,18.2 1.4,19.1 0.3999999999999999,18.2 0.3999999999999999,12.8" fill="#0B0B0B" fill-opacity="0.07"/><polygon points="10.6,11.9 11.6,12.8 11.6,18.2 10.6,19.1 9.6,18.2 9.6,12.8" fill="#0B0B0B" fill-opacity="0.07"/></g><rect x="611.3" y="336.2" width="4.7" height="4.7" fill="#0B0B0B" fill-opacity="0.07"/><rect x="609.6" y="355.1" width="4.7" height="4.7" fill="#0B0B0B" fill-opacity="0.07"/><g transform="translate(619.1 322.0) scale(2.364) skewX(-7)"><polygon points="2.3,1 9.7,1 10.6,2 9.7,3 2.3,3 1.4,2" fill="#0B0B0B" fill-opacity="0.07"/><polygon points="2.3,10 9.7,10 10.6,11 9.7,12 2.3,12 1.4,11" fill="#0B0B0B" fill-opacity="0.07"/><polygon points="2.3,19 9.7,19 10.6,20 9.7,21 2.3,21 1.4,20" fill="#0B0B0B" fill-opacity="0.07"/><polygon points="1.4,2.9 2.4,3.8 2.4,9.2 1.4,10.1 0.3999999999999999,9.2 0.3999999999999999,3.8" fill="#0B0B0B" fill-opacity="0.07"/><polygon points="10.6,2.9 11.6,3.8 11.6,9.2 10.6,10.1 9.6,9.2 9.6,3.8" fill="#0B0B0B" fill-opacity="0.07"/><polygon points="1.4,11.9 2.4,12.8 2.4,18.2 1.4,19.1 0.3999999999999999,18.2 0.3999999999999999,12.8" fill="#0B0B0B" fill-opacity="0.07"/><polygon points="10.6,11.9 11.6,12.8 11.6,18.2 10.6,19.1 9.6,18.2 9.6,12.8" fill="#0B0B0B" fill-opacity="0.07"/></g><g transform="translate(655.4 322.0) scale(2.364) skewX(-7)"><polygon points="2.3,1 9.7,1 10.6,2 9.7,3 2.3,3 1.4,2" fill="#0B0B0B" fill-opacity="0.07"/><polygon points="2.3,10 9.7,10 10.6,11 9.7,12 2.3,12 1.4,11" fill="#0B0B0B" fill-opacity="0.07"/><polygon points="2.3,19 9.7,19 10.6,20 9.7,21 2.3,21 1.4,20" fill="#0B0B0B" fill-opacity="0.07"/><polygon points="1.4,2.9 2.4,3.8 2.4,9.2 1.4,10.1 0.3999999999999999,9.2 0.3999999999999999,3.8" fill="#0B0B0B" fill-opacity="0.07"/><polygon points="10.6,2.9 11.6,3.8 11.6,9.2 10.6,10.1 9.6,9.2 9.6,3.8" fill="#0B0B0B" fill-opacity="0.07"/><polygon points="1.4,11.9 2.4,12.8 2.4,18.2 1.4,19.1 0.3999999999999999,18.2 0.3999999999999999,12.8" fill="#0B0B0B" fill-opacity="0.07"/><polygon points="10.6,11.9 11.6,12.8 11.6,18.2 10.6,19.1 9.6,18.2 9.6,12.8" fill="#0B0B0B" fill-opacity="0.07"/></g><path fill="#5C5A55"  d="M1004.8 354V344.9H1006.3V352.8H1010.4V354ZM1019.8 354 1019.1 351.6H1016.2L1015.5 354H1014.1L1016.7 344.9H1018.7L1021.4 354ZM1017.7 346.4H1017.6L1016.5 350.4H1018.8ZM1028 354.2Q1026.8 354.2 1026 353.7Q1025.2 353.3 1024.7 352.6L1025.6 351.7Q1026.2 352.4 1026.7 352.7Q1027.3 352.9 1028.1 352.9Q1028.9 352.9 1029.4 352.6Q1029.9 352.2 1029.9 351.4Q1029.9 350.9 1029.5 350.5Q1029.2 350.2 1028.4 350.1L1027.4 349.9Q1026.7 349.8 1026.3 349.6Q1025.8 349.3 1025.6 349Q1025.3 348.7 1025.2 348.3Q1025 347.9 1025 347.4Q1025 346.1 1025.9 345.4Q1026.7 344.8 1028.2 344.8Q1029.2 344.8 1030 345.1Q1030.8 345.5 1031.2 346.1L1030.3 347Q1029.9 346.5 1029.4 346.3Q1028.9 346 1028.2 346Q1027.4 346 1026.9 346.3Q1026.5 346.7 1026.5 347.3Q1026.5 347.9 1026.8 348.2Q1027.2 348.5 1028 348.7L1029 348.8Q1030.2 349.1 1030.8 349.7Q1031.3 350.4 1031.3 351.4Q1031.3 352 1031.1 352.5Q1030.9 353 1030.5 353.4Q1030 353.8 1029.4 354Q1028.8 354.2 1028 354.2ZM1039.2 346.1V354H1037.8V346.1H1034.9V344.9H1042.1V346.1ZM1060 346.1V354H1058.6V346.1H1055.7V344.9H1062.9V346.1ZM1066.8 354V352.9H1069V346H1066.8V344.9H1072.6V346H1070.4V352.9H1072.6V354ZM1082 349.7 1082 346.9H1081.9L1080.1 351.6L1078.3 346.9H1078.2L1078.2 349.7V354H1076.9V344.9H1078.7L1080.1 348.5H1080.2L1081.6 344.9H1083.3V354H1082ZM1087.7 354V344.9H1093.4V346.1H1089.2V348.8H1093.2V350H1089.2V352.8H1093.4V354ZM1108.5 344.9H1111.2Q1112.9 344.9 1113.8 346.1Q1114.6 347.2 1114.6 349.5Q1114.6 351.7 1113.8 352.8Q1112.9 354 1111.2 354H1108.5ZM1111.1 352.8Q1112.1 352.8 1112.6 352.1Q1113.1 351.5 1113.1 350.2V348.7Q1113.1 347.5 1112.6 346.8Q1112.1 346.1 1111.1 346.1H1109.9V352.8ZM1118.9 354V344.9H1124.6V346.1H1120.4V348.8H1124.4V350H1120.4V352.8H1124.6V354ZM1129.3 354V344.9H1132.7Q1134 344.9 1134.7 345.7Q1135.4 346.4 1135.4 347.7Q1135.4 348.9 1134.7 349.7Q1134 350.4 1132.7 350.4H1130.7V354ZM1130.7 349.2H1132.5Q1133.8 349.2 1133.8 347.9V347.4Q1133.8 346.1 1132.5 346.1H1130.7ZM1144.6 354 1143.9 351.6H1141L1140.3 354H1138.9L1141.5 344.9H1143.5L1146.2 354ZM1142.5 346.4H1142.4L1141.3 350.4H1143.6ZM1151.5 354H1150.1V344.9H1153.5Q1154.8 344.9 1155.5 345.7Q1156.2 346.4 1156.2 347.7Q1156.2 348.7 1155.6 349.4Q1155.1 350 1154.2 350.2L1156.3 354H1154.7L1152.7 350.3H1151.5ZM1153.3 349.2Q1154.6 349.2 1154.6 347.9V347.4Q1154.6 346.1 1153.3 346.1H1151.5V349.2ZM1164 346.1V354H1162.6V346.1H1159.7V344.9H1166.9V346.1ZM1170.9 354V344.9H1176.6V346.1H1172.4V348.8H1176.4V350H1172.4V352.8H1176.6V354ZM1181.3 344.9H1184Q1185.7 344.9 1186.6 346.1Q1187.4 347.2 1187.4 349.5Q1187.4 351.7 1186.6 352.8Q1185.7 354 1184 354H1181.3ZM1183.9 352.8Q1184.9 352.8 1185.4 352.1Q1185.9 351.5 1185.9 350.2V348.7Q1185.9 347.5 1185.4 346.8Q1184.9 346.1 1183.9 346.1H1182.7V352.8Z"/><path fill="#0B0B0B"  d="M69.4 462.4Q71 462.4 72.5 461.6Q74 460.8 75.1 459.4Q76.3 458 77 456.2Q77.6 454.5 77.6 452.6Q77.6 452 77.6 451.4H74.7Q74.8 452.4 74.8 453.5Q74.8 457 73.3 459.1Q71.9 461.3 69.6 461.3Q68.6 461.3 68.1 460.8Q67.7 460.3 67.6 459.7Q67.5 459.1 67.2 458.6Q67 458.2 66.2 458.2Q65.6 458.2 65.2 458.5Q64.8 458.9 64.8 459.6Q64.8 460.8 66.1 461.6Q67.3 462.4 69.4 462.4ZM77.6 450.7Q77.5 448.9 76.8 447.4Q76 445.5 74.6 444.5Q73.2 443.4 71.4 443.4Q70.7 443.4 70 443.6Q69.8 443.7 69.8 443.5Q69.7 443.4 69.9 443.3L70.8 442.6Q76 439.1 76 435.9Q76 434.1 74.7 433Q73.5 431.9 71.5 431.9Q69.2 431.9 67.6 433.4Q66 434.8 65.8 437.3Q65.7 437.8 65.9 437.9Q66 438 66.2 438Q66.8 438 66.8 437.4Q67.2 435.5 68.2 434.4Q69.2 433.2 70.8 433.2Q71.9 433.2 72.6 434.1Q73.2 434.9 73.2 436.4Q73.2 437.7 72.4 439.1Q71.6 440.4 69.9 442.1L67 444.8Q66.4 445.4 66.7 445.8Q67 446.1 67.6 445.6Q68.8 444.9 70.4 444.9Q74.2 444.9 74.7 450.7ZM86.9 462.4Q89.1 462.4 90.8 461.3Q92.5 460.3 93.5 458.6Q94.5 456.8 94.5 454.6Q94.5 452.9 93.9 451.4H90.8Q91.1 451.9 91.5 452.4Q92.2 453.9 92.2 456Q92.2 458.4 90.8 459.8Q89.4 461.3 87 461.3Q85.1 461.3 84 460.4Q82.9 459.6 82.4 458.2Q81.9 456.8 81.9 455.2Q81.9 453.1 82.6 451.4H80.4Q79.5 453.1 79.5 455.1Q79.5 456.9 80.4 458.6Q81.3 460.2 82.9 461.3Q84.6 462.4 86.9 462.4ZM94 450.7Q93.7 450 93.3 449.4Q92.1 447.4 89.2 445.6Q88.9 445.4 88.9 445.3Q88.9 445.1 89.2 445Q91.3 443.8 92.6 442Q93.9 440.2 93.9 438.2Q93.9 436.4 93 434.9Q92.2 433.5 90.7 432.7Q89.3 431.9 87.5 431.9Q85.6 431.9 84 432.7Q82.4 433.6 81.4 435Q80.5 436.5 80.5 438.5Q80.5 440.4 81.5 442.4Q82.6 444.3 84.9 445.8Q85.1 446 85.1 446.2Q85.1 446.4 84.8 446.5Q82.3 447.8 80.9 449.8Q80.5 450.2 80.3 450.7H82.5Q83.4 448.4 85.6 447Q86.1 446.6 86.6 447Q88.2 447.9 89.5 449Q90.3 449.8 91 450.7ZM87.4 444.5Q85.5 443.3 84.5 442.1Q83.5 441 83.2 439.8Q82.8 438.7 82.8 437.5Q82.8 435.4 84.1 434.2Q85.3 433 87.4 433Q89.5 433 90.5 434.3Q91.5 435.7 91.5 438Q91.5 440 90.7 441.7Q89.9 443.4 88.4 444.4Q87.9 444.8 87.4 444.5ZM98 468.2Q99.6 466.9 100.5 464.9Q101.5 463 101.5 460.8Q101.5 459.6 100.9 458.9Q100.4 458.2 99.4 458.2Q98.5 458.2 98 458.7Q97.4 459.2 97.4 460Q97.4 460.8 97.8 461.1Q98.1 461.5 98.5 461.8Q98.9 462.1 99.2 462.4Q99.5 462.8 99.5 463.4Q99.5 464.5 99 465.5Q98.6 466.5 97.4 467.6Q97.1 468 97.1 468.2Q97.2 468.3 97.3 468.4Q97.6 468.7 98 468.2ZM106.9 462.3Q110 461.5 112.5 459Q115 456.4 116.5 452.5Q116.7 452 116.9 451.4H114.2Q113.4 455.1 111.7 457.4Q109.7 460.1 106.6 461.3Q106.2 461.5 106.2 461.8Q106.2 462.1 106.4 462.2Q106.5 462.4 106.9 462.3ZM116.8 450.7Q118 447.1 118 442.7Q118 439.4 117.1 437Q116.3 434.6 114.7 433.2Q113.2 431.9 111.2 431.9Q109.3 431.9 107.8 433.2Q106.2 434.4 105.3 436.5Q104.4 438.6 104.4 441Q104.4 443.4 105.2 445.4Q106.1 447.4 107.6 448.5Q109.1 449.7 110.9 449.7Q112.7 449.7 114 448.7Q114.2 448.5 114.4 448.6Q114.5 448.7 114.5 449Q114.3 449.9 114.1 450.7ZM107.3 440.8Q107.3 433 111.1 433Q113.1 433 114.1 434.9Q115.1 436.8 115.1 440.6Q115.1 444.4 114.1 446.6Q113 448.7 111 448.7Q107.3 448.7 107.3 440.8ZM127.5 462.4Q129.7 462.4 131.4 461.3Q133.1 460.3 134.1 458.6Q135.1 456.8 135.1 454.6Q135.1 452.9 134.5 451.4H131.4Q131.7 451.9 132 452.4Q132.8 453.9 132.8 456Q132.8 458.4 131.4 459.8Q130 461.3 127.6 461.3Q125.7 461.3 124.6 460.4Q123.4 459.6 123 458.2Q122.5 456.8 122.5 455.2Q122.5 453.1 123.2 451.4H121Q120 453.1 120 455.1Q120 456.9 120.9 458.6Q121.8 460.2 123.5 461.3Q125.2 462.4 127.5 462.4ZM134.6 450.7Q134.3 450 133.9 449.4Q132.7 447.4 129.8 445.6Q129.5 445.4 129.5 445.3Q129.5 445.1 129.8 445Q131.9 443.8 133.2 442Q134.4 440.2 134.4 438.2Q134.4 436.4 133.6 434.9Q132.8 433.5 131.3 432.7Q129.9 431.9 128.1 431.9Q126.2 431.9 124.6 432.7Q123 433.6 122 435Q121 436.5 121 438.5Q121 440.4 122.1 442.4Q123.2 444.3 125.4 445.8Q125.6 446 125.6 446.2Q125.6 446.4 125.4 446.5Q122.8 447.8 121.4 449.8Q121.1 450.2 120.9 450.7H123.1Q124 448.4 126.2 447Q126.7 446.6 127.2 447Q128.8 447.9 130 449Q130.9 449.8 131.6 450.7ZM128 444.5Q126.1 443.3 125.1 442.1Q124.1 441 123.7 439.8Q123.4 438.7 123.4 437.5Q123.4 435.4 124.7 434.2Q125.9 433 128 433Q130 433 131.1 434.3Q132.1 435.7 132.1 438Q132.1 440 131.3 441.7Q130.5 443.4 129 444.4Q128.5 444.8 128 444.5ZM141 462.4Q143.1 462.4 145.1 461.2Q147.1 460.1 148.4 458Q149.7 455.8 149.7 452.8Q149.7 452.1 149.6 451.4H146.6Q146.8 452.4 146.8 453.7Q146.8 456.4 146 458.1Q145.2 459.8 144 460.5Q142.7 461.3 141.5 461.3Q140.3 461.3 139.8 460.8Q139.2 460.3 139 459.7Q138.7 459.1 138.4 458.6Q138.1 458.2 137.5 458.2Q136.9 458.2 136.5 458.5Q136.1 458.9 136.1 459.5Q136.1 460.4 136.9 461.1Q137.7 461.7 138.8 462Q139.9 462.4 141 462.4ZM149.7 450.7Q149.5 448.9 148.8 447.2Q147.8 445.1 145.8 443.7Q143.9 442.3 140.7 441.9Q140.4 441.9 140.3 441.7Q140.2 441.6 140.2 441.3L141.4 435.2Q141.5 434.7 142 434.7H148.6Q149.1 434.7 149.2 434.2L149.8 432.1Q149.9 431.8 149.8 431.5Q149.7 431.3 149.4 431.3Q149.1 431.3 148.9 431.5Q148.7 431.8 148.4 432Q148.1 432.3 147.4 432.3H141.1Q140.7 432.3 140.5 432.8L138.4 443.8Q138.4 444.1 138.5 444.3Q138.6 444.4 138.9 444.5Q143.2 444.8 145 446.9Q146.3 448.4 146.7 450.7Z"/><path fill="#5C5A55"  d="M168.9 458.1Q167.3 458.1 166.5 457Q165.7 455.9 165.7 453.8Q165.7 451.7 166.5 450.6Q167.3 449.5 168.9 449.5Q169.5 449.5 169.9 449.6Q170.4 449.8 170.7 450.1Q171 450.4 171.2 450.7Q171.5 451.1 171.6 451.6L170.4 452Q170.3 451.7 170.2 451.4Q170.1 451.2 169.9 451Q169.7 450.8 169.5 450.7Q169.2 450.6 168.8 450.6Q168 450.6 167.6 451.3Q167.1 452 167.1 453.1V454.5Q167.1 455.7 167.6 456.4Q168 457 168.8 457Q169.2 457 169.5 456.9Q169.7 456.8 169.9 456.6Q170.1 456.5 170.2 456.2Q170.3 455.9 170.4 455.7L171.6 456.1Q171.5 456.5 171.2 456.9Q171 457.3 170.7 457.5Q170.4 457.8 169.9 458Q169.5 458.1 168.9 458.1ZM178 458.1Q177.2 458.1 176.6 457.9Q176.1 457.6 175.7 457Q175.3 456.5 175.1 455.6Q174.9 454.8 174.9 453.8Q174.9 452.8 175.1 452Q175.3 451.2 175.7 450.6Q176.1 450.1 176.6 449.8Q177.2 449.5 178 449.5Q178.8 449.5 179.4 449.8Q180 450.1 180.4 450.6Q180.7 451.2 180.9 452Q181.1 452.8 181.1 453.8Q181.1 454.8 180.9 455.6Q180.7 456.5 180.4 457Q180 457.6 179.4 457.9Q178.8 458.1 178 458.1ZM178 457Q178.9 457 179.3 456.4Q179.7 455.7 179.7 454.5V453.1Q179.7 452 179.3 451.3Q178.9 450.6 178 450.6Q177.1 450.6 176.7 451.3Q176.4 452 176.4 453.1V454.5Q176.4 455.7 176.7 456.4Q177.1 457 178 457ZM186 451.6H185.9V458H184.7V449.6H186.4L188.9 456.1H189V449.6H190.2V458H188.4ZM197.5 450.8V458H196.1V450.8H193.5V449.6H200.1V450.8ZM205 458H203.6V449.6H206.8Q208 449.6 208.6 450.3Q209.2 451 209.2 452.1Q209.2 453.1 208.8 453.7Q208.3 454.4 207.4 454.5L209.3 458H207.9L206.1 454.6H205ZM206.6 453.5Q207.8 453.5 207.8 452.4V451.9Q207.8 450.7 206.6 450.7H205V453.5ZM213 458V457H214.9V450.6H213V449.6H218.3V450.6H216.3V457H218.3V458ZM222.4 449.6H225.3Q226.4 449.6 227.1 450.2Q227.7 450.8 227.7 451.8Q227.7 452.6 227.3 453Q227 453.4 226.4 453.6V453.7Q227.1 453.8 227.6 454.3Q228 454.8 228 455.6Q228 456.2 227.8 456.6Q227.7 457 227.3 457.3Q227 457.7 226.6 457.8Q226.2 458 225.6 458H222.4ZM225.2 457Q225.9 457 226.3 456.7Q226.6 456.4 226.6 455.8V455.4Q226.6 454.8 226.3 454.5Q225.9 454.2 225.2 454.2H223.7V457ZM225 453.2Q225.7 453.2 226 453Q226.3 452.7 226.3 452.2V451.7Q226.3 451.1 226 450.9Q225.7 450.7 225 450.7H223.7V453.2ZM233 449.6V454.8Q233 455.3 233 455.7Q233.1 456.1 233.2 456.4Q233.3 456.7 233.6 456.9Q233.9 457 234.4 457Q234.9 457 235.2 456.9Q235.5 456.7 235.6 456.4Q235.8 456.1 235.8 455.7Q235.8 455.3 235.8 454.8V449.6H237.2V454.5Q237.2 455.4 237.1 456.1Q237 456.8 236.7 457.2Q236.4 457.7 235.8 457.9Q235.3 458.1 234.4 458.1Q233.5 458.1 233 457.9Q232.5 457.7 232.2 457.2Q231.9 456.8 231.8 456.1Q231.6 455.4 231.6 454.5V449.6ZM244.5 450.8V458H243.1V450.8H240.5V449.6H247.1V450.8ZM250.6 458V457H252.5V450.6H250.6V449.6H255.9V450.6H253.9V457H255.9V458ZM262.6 458.1Q261.8 458.1 261.2 457.9Q260.7 457.6 260.3 457Q259.9 456.5 259.7 455.6Q259.5 454.8 259.5 453.8Q259.5 452.8 259.7 452Q259.9 451.2 260.3 450.6Q260.7 450.1 261.2 449.8Q261.8 449.5 262.6 449.5Q263.4 449.5 264 449.8Q264.6 450.1 265 450.6Q265.3 451.2 265.5 452Q265.7 452.8 265.7 453.8Q265.7 454.8 265.5 455.6Q265.3 456.5 265 457Q264.6 457.6 264 457.9Q263.4 458.1 262.6 458.1ZM262.6 457Q263.5 457 263.9 456.4Q264.3 455.7 264.3 454.5V453.1Q264.3 452 263.9 451.3Q263.5 450.6 262.6 450.6Q261.7 450.6 261.3 451.3Q261 452 261 453.1V454.5Q261 455.7 261.3 456.4Q261.7 457 262.6 457ZM270.6 451.6H270.5V458H269.3V449.6H271L273.5 456.1H273.6V449.6H274.8V458H273ZM281.3 458.1Q280.3 458.1 279.5 457.8Q278.8 457.4 278.3 456.7L279.2 455.9Q279.6 456.5 280.2 456.8Q280.7 457 281.4 457Q282.2 457 282.6 456.7Q283 456.3 283 455.6Q283 455.1 282.7 454.8Q282.4 454.5 281.7 454.4L280.7 454.2Q280.1 454.1 279.7 453.9Q279.3 453.7 279.1 453.4Q278.8 453.1 278.7 452.7Q278.6 452.3 278.6 451.9Q278.6 450.7 279.4 450.1Q280.1 449.5 281.5 449.5Q282.5 449.5 283.2 449.8Q283.9 450.1 284.3 450.7L283.5 451.5Q283.1 451.1 282.6 450.9Q282.2 450.6 281.5 450.6Q280.7 450.6 280.3 450.9Q280 451.2 280 451.8Q280 452.4 280.3 452.7Q280.6 452.9 281.3 453.1L282.2 453.2Q283.4 453.4 283.9 454.1Q284.4 454.7 284.4 455.6Q284.4 456.1 284.2 456.6Q284 457.1 283.6 457.4Q283.2 457.8 282.6 458Q282.1 458.1 281.3 458.1ZM300.9 450.8V458H299.5V450.8H296.9V449.6H303.5V450.8ZM311 454.3H308.2V458H306.9V449.6H308.2V453.2H311V449.6H312.4V458H311ZM316.4 458V457H318.3V450.6H316.4V449.6H321.7V450.6H319.7V457H321.7V458ZM328.3 458.1Q327.3 458.1 326.5 457.8Q325.8 457.4 325.3 456.7L326.2 455.9Q326.6 456.5 327.2 456.8Q327.7 457 328.4 457Q329.2 457 329.6 456.7Q330 456.3 330 455.6Q330 455.1 329.7 454.8Q329.4 454.5 328.7 454.4L327.7 454.2Q327.1 454.1 326.7 453.9Q326.3 453.7 326.1 453.4Q325.8 453.1 325.7 452.7Q325.6 452.3 325.6 451.9Q325.6 450.7 326.4 450.1Q327.1 449.5 328.5 449.5Q329.5 449.5 330.2 449.8Q330.9 450.1 331.3 450.7L330.5 451.5Q330.1 451.1 329.6 450.9Q329.2 450.6 328.5 450.6Q327.7 450.6 327.3 450.9Q327 451.2 327 451.8Q327 452.4 327.3 452.7Q327.6 452.9 328.3 453.1L329.2 453.2Q330.4 453.4 330.9 454.1Q331.4 454.7 331.4 455.6Q331.4 456.1 331.2 456.6Q331 457.1 330.6 457.4Q330.2 457.8 329.6 458Q329.1 458.1 328.3 458.1ZM346.5 458V454.8L343.8 449.6H345.3L346.3 451.7L347.2 453.5H347.3L348.1 451.7L349.2 449.6H350.7L347.9 454.8V458ZM354.1 458V449.6H359.3V450.8H355.4V453.2H359.2V454.3H355.4V456.9H359.3V458ZM368 458 367.3 455.8H364.7L364 458H362.7L365.1 449.6H366.9L369.4 458ZM366 451H365.9L364.9 454.7H367.1ZM374.2 458H372.8V449.6H376Q377.2 449.6 377.8 450.3Q378.4 451 378.4 452.1Q378.4 453.1 378 453.7Q377.5 454.4 376.6 454.5L378.5 458H377.1L375.3 454.6H374.2ZM375.8 453.5Q377 453.5 377 452.4V451.9Q377 450.7 375.8 450.7H374.2V453.5Z"/><path fill="#0B0B0B"  d="M436.5 462H448.7Q449.6 462 449.7 461.1L450.1 453.6Q450.2 453.2 450 453Q449.9 452.9 449.7 452.9Q449.2 452.9 449.1 453.4L448.7 455.3Q448.4 457 447.8 458Q447.2 458.9 446.2 459.3Q445.2 459.6 443.7 459.6H439.4Q439 459.6 438.8 459.3Q438.5 459.1 438.8 458.7L441.9 454Q442.8 452.6 443.6 451.4H442.2Q441.6 452.4 440.9 453.4L436.1 460.8Q435.8 461.2 435.8 461.5Q435.8 462 436.5 462ZM443.5 450.7Q444.7 448.8 445.8 447.2Q447.5 444.6 448.5 442.4Q449.5 440.2 449.5 438.2Q449.5 435.2 447.7 433.5Q446 431.9 443.2 431.9Q441.6 431.9 440.1 432.5Q438.5 433.2 437.4 434.7Q436.3 436.3 436 438.9Q436 439.4 436.2 439.6Q436.3 439.7 436.5 439.7Q437 439.7 437.1 439.1Q437.6 436.2 439.1 434.8Q440.7 433.5 442.6 433.5Q444.5 433.5 445.6 434.8Q446.6 436.1 446.6 438.6Q446.6 441.4 445.3 444.6Q444.2 447.3 442.1 450.7ZM456.1 462.4Q457.7 462.4 459.2 461.6Q460.6 460.8 461.8 459.4Q463 458 463.6 456.2Q464.3 454.5 464.3 452.6Q464.3 452 464.3 451.4H461.4Q461.4 452.4 461.4 453.5Q461.4 457 460 459.1Q458.6 461.3 456.3 461.3Q455.2 461.3 454.8 460.8Q454.4 460.3 454.3 459.7Q454.2 459.1 453.9 458.6Q453.7 458.2 452.9 458.2Q452.3 458.2 451.9 458.5Q451.5 458.9 451.5 459.6Q451.5 460.8 452.7 461.6Q454 462.4 456.1 462.4ZM464.3 450.7Q464.2 448.9 463.5 447.4Q462.7 445.5 461.3 444.5Q459.9 443.4 458.1 443.4Q457.4 443.4 456.7 443.6Q456.5 443.7 456.5 443.5Q456.4 443.4 456.6 443.3L457.5 442.6Q462.6 439.1 462.6 435.9Q462.6 434.1 461.4 433Q460.2 431.9 458.2 431.9Q455.9 431.9 454.3 433.4Q452.7 434.8 452.4 437.3Q452.4 437.8 452.6 437.9Q452.7 438 452.9 438Q453.4 438 453.5 437.4Q453.8 435.5 454.9 434.4Q455.9 433.2 457.4 433.2Q458.6 433.2 459.3 434.1Q459.9 434.9 459.9 436.4Q459.9 437.7 459.1 439.1Q458.3 440.4 456.6 442.1L453.7 444.8Q453.1 445.4 453.4 445.8Q453.7 446.1 454.3 445.6Q455.4 444.9 457 444.9Q460.9 444.9 461.4 450.7ZM470.4 462.4Q472 462.4 473.5 461.6Q475 460.8 476.1 459.4Q477.3 458 478 456.2Q478.7 454.5 478.7 452.6Q478.7 452 478.6 451.4H475.7Q475.8 452.4 475.8 453.5Q475.8 457 474.4 459.1Q472.9 461.3 470.7 461.3Q469.6 461.3 469.2 460.8Q468.7 460.3 468.6 459.7Q468.5 459.1 468.3 458.6Q468 458.2 467.3 458.2Q466.6 458.2 466.2 458.5Q465.8 458.9 465.8 459.6Q465.8 460.8 467.1 461.6Q468.3 462.4 470.4 462.4ZM478.6 450.7Q478.5 448.9 477.9 447.4Q477.1 445.5 475.7 444.5Q474.3 443.4 472.4 443.4Q471.7 443.4 471.1 443.6Q470.9 443.7 470.8 443.5Q470.7 443.4 470.9 443.3L471.8 442.6Q477 439.1 477 435.9Q477 434.1 475.8 433Q474.5 431.9 472.5 431.9Q470.2 431.9 468.6 433.4Q467.1 434.8 466.8 437.3Q466.7 437.8 466.9 437.9Q467.1 438 467.3 438Q467.8 438 467.9 437.4Q468.2 435.5 469.2 434.4Q470.3 433.2 471.8 433.2Q472.9 433.2 473.6 434.1Q474.3 434.9 474.3 436.4Q474.3 437.7 473.5 439.1Q472.7 440.4 470.9 442.1L468 444.8Q467.5 445.4 467.7 445.8Q468 446.1 468.7 445.6Q469.8 444.9 471.4 444.9Q475.2 444.9 475.7 450.7Z"/><path fill="#5C5A55"  d="M494.8 449.6H497.3Q498.9 449.6 499.7 450.7Q500.5 451.8 500.5 453.8Q500.5 455.9 499.7 456.9Q498.9 458 497.3 458H494.8ZM497.3 456.9Q498.2 456.9 498.6 456.3Q499.1 455.7 499.1 454.5V453.1Q499.1 452 498.6 451.3Q498.2 450.7 497.3 450.7H496.2V456.9ZM508.8 458 508.2 455.8H505.5L504.9 458H503.5L505.9 449.6H507.8L510.2 458ZM506.9 451H506.8L505.8 454.7H507.9ZM515.6 458V454.8L512.8 449.6H514.3L515.4 451.7L516.2 453.5H516.3L517.2 451.7L518.3 449.6H519.7L516.9 454.8V458ZM525.6 458.1Q524.5 458.1 523.8 457.8Q523 457.4 522.5 456.7L523.4 455.9Q523.9 456.5 524.4 456.8Q525 457 525.6 457Q526.4 457 526.9 456.7Q527.3 456.3 527.3 455.6Q527.3 455.1 527 454.8Q526.7 454.5 525.9 454.4L525 454.2Q524.4 454.1 524 453.9Q523.6 453.7 523.3 453.4Q523.1 453.1 523 452.7Q522.8 452.3 522.8 451.9Q522.8 450.7 523.6 450.1Q524.4 449.5 525.7 449.5Q526.7 449.5 527.4 449.8Q528.1 450.1 528.6 450.7L527.7 451.5Q527.4 451.1 526.9 450.9Q526.4 450.6 525.7 450.6Q525 450.6 524.6 450.9Q524.2 451.2 524.2 451.8Q524.2 452.4 524.5 452.7Q524.8 452.9 525.6 453.1L526.5 453.2Q527.6 453.4 528.1 454.1Q528.6 454.7 528.6 455.6Q528.6 456.1 528.4 456.6Q528.2 457.1 527.8 457.4Q527.5 457.8 526.9 458Q526.3 458.1 525.6 458.1ZM546.4 458 545.8 455.8H543.1L542.5 458H541.1L543.5 449.6H545.4L547.8 458ZM544.5 451H544.4L543.4 454.7H545.5ZM554.5 450.8V458H553.2V450.8H550.6V449.6H557.2V450.8ZM570 458 569.4 449.6H570.5L570.8 454.5L571 456.6H571.1L572 451.7H573.3L574.3 456.6H574.4L574.5 454.5L574.8 449.6H576L575.4 458H573.6L572.7 453.2H572.6L571.8 458ZM582.1 458.1Q581.3 458.1 580.7 457.9Q580.1 457.6 579.7 457Q579.3 456.5 579.2 455.6Q579 454.8 579 453.8Q579 452.8 579.2 452Q579.3 451.2 579.7 450.6Q580.1 450.1 580.7 449.8Q581.3 449.5 582.1 449.5Q582.9 449.5 583.4 449.8Q584 450.1 584.4 450.6Q584.8 451.2 585 452Q585.1 452.8 585.1 453.8Q585.1 454.8 585 455.6Q584.8 456.5 584.4 457Q584 457.6 583.4 457.9Q582.9 458.1 582.1 458.1ZM582.1 457Q583 457 583.3 456.4Q583.7 455.7 583.7 454.5V453.1Q583.7 452 583.3 451.3Q583 450.6 582.1 450.6Q581.2 450.6 580.8 451.3Q580.4 452 580.4 453.1V454.5Q580.4 455.7 580.8 456.4Q581.2 457 582.1 457ZM590.2 458H588.9V449.6H592Q593.2 449.6 593.8 450.3Q594.5 451 594.5 452.1Q594.5 453.1 594 453.7Q593.5 454.4 592.6 454.5L594.6 458H593.1L591.3 454.6H590.2ZM591.8 453.5Q593.1 453.5 593.1 452.4V451.9Q593.1 450.7 591.8 450.7H590.2V453.5ZM600.5 454.1 599.5 455.4V458H598.2V449.6H599.5V453.6H599.6L600.6 452.2L602.7 449.6H604.2L601.5 453.2L604.3 458H602.8Z"/><path fill="#0B0B0B"  d="M667.3 462H675Q675.6 462 675.6 461.6Q675.6 461.2 675.1 461.1L674.2 460.9Q673.3 460.8 673.1 460.5Q672.8 460.2 672.8 459.4V454.2Q672.8 453.6 673.4 453.6H675.1Q675.6 453.6 675.6 453.1V451.8Q675.6 451.5 675.4 451.4H661.5L661.2 451.9Q661.1 452.3 661 452.5Q660.9 452.7 660.9 452.9Q660.9 453.6 661.6 453.6H669.7Q670.3 453.6 670.3 454.2V459.4Q670.3 460.1 670 460.4Q669.7 460.7 668.9 460.8L667.2 461.1Q666.7 461.1 666.7 461.6Q666.7 462 667.3 462ZM675.6 450.7Q675.5 450.4 675.1 450.4H673.4Q672.8 450.4 672.8 449.9V440.9Q672.8 440.6 672.6 440.5Q672.4 440.4 672.1 440.6L670.7 441.4Q670.3 441.7 670.3 442V449.9Q670.3 450.4 669.7 450.4H663.3Q663.1 450.4 663 450.3Q662.9 450.2 663 449.9L672.6 433Q672.8 432.6 672.7 432.4Q672.6 432.3 672.3 432.3H671.5Q671 432.3 670.8 432.7L661.4 450.7Z"/><path fill="#5C5A55"  d="M692.8 458 690.5 449.6H691.9L693 453.8L693.8 456.7H693.8L694.6 453.8L695.7 449.6H697.1L694.7 458ZM700.6 458V449.6H705.9V450.8H702V453.2H705.7V454.3H702V456.9H705.9V458ZM711.1 451.6H711V458H709.8V449.6H711.6L714 456.1H714.1V449.6H715.3V458H713.6ZM722.7 450.8V458H721.3V450.8H718.7V449.6H725.3V450.8ZM730 449.6V454.8Q730 455.3 730 455.7Q730 456.1 730.2 456.4Q730.3 456.7 730.6 456.9Q730.9 457 731.4 457Q731.9 457 732.2 456.9Q732.5 456.7 732.6 456.4Q732.7 456.1 732.8 455.7Q732.8 455.3 732.8 454.8V449.6H734.2V454.5Q734.2 455.4 734 456.1Q733.9 456.8 733.6 457.2Q733.3 457.7 732.8 457.9Q732.3 458.1 731.4 458.1Q730.5 458.1 730 457.9Q729.4 457.7 729.1 457.2Q728.8 456.8 728.7 456.1Q728.6 455.4 728.6 454.5V449.6ZM739.5 458H738.2V449.6H741.3Q742.5 449.6 743.1 450.3Q743.8 451 743.8 452.1Q743.8 453.1 743.3 453.7Q742.8 454.4 742 454.5L743.9 458H742.4L740.6 454.6H739.5ZM741.1 453.5Q742.4 453.5 742.4 452.4V451.9Q742.4 450.7 741.1 450.7H739.5V453.5ZM747.6 458V449.6H752.9V450.8H749V453.2H752.7V454.3H749V456.9H752.9V458ZM759.5 458.1Q758.4 458.1 757.7 457.8Q756.9 457.4 756.4 456.7L757.3 455.9Q757.8 456.5 758.3 456.8Q758.9 457 759.6 457Q760.3 457 760.8 456.7Q761.2 456.3 761.2 455.6Q761.2 455.1 760.9 454.8Q760.6 454.5 759.8 454.4L758.9 454.2Q758.3 454.1 757.9 453.9Q757.5 453.7 757.2 453.4Q757 453.1 756.9 452.7Q756.8 452.3 756.8 451.9Q756.8 450.7 757.5 450.1Q758.3 449.5 759.6 449.5Q760.6 449.5 761.3 449.8Q762 450.1 762.5 450.7L761.6 451.5Q761.3 451.1 760.8 450.9Q760.3 450.6 759.6 450.6Q758.9 450.6 758.5 450.9Q758.1 451.2 758.1 451.8Q758.1 452.4 758.4 452.7Q758.7 452.9 759.5 453.1L760.4 453.2Q761.5 453.4 762 454.1Q762.6 454.7 762.6 455.6Q762.6 456.1 762.4 456.6Q762.2 457.1 761.8 457.4Q761.4 457.8 760.8 458Q760.2 458.1 759.5 458.1Z"/></svg>
